<svg xmlns="http://www.w3.org/2000/svg" xmlns:xlink="http://www.w3.org/1999/xlink" width="750" viewBox="0 0 750 262.5" height="262.5" version="1.0"><defs><clipPath id="b"><path d="M 0.714844 0 L 749.285156 0 L 749.285156 262 L 0.714844 262 Z M 0.714844 0"/></clipPath><clipPath id="e"><path d="M 3 6 L 134 6 L 134 111 L 3 111 Z M 3 6"/></clipPath><clipPath id="f"><path d="M 7.148438 0.0507812 L 137.15625 8.046875 L 130.402344 117.878906 L 0.394531 109.882812 Z M 7.148438 0.0507812"/></clipPath><clipPath id="g"><path d="M 7.148438 0.0507812 L 137.15625 8.046875 L 130.402344 117.878906 L 0.394531 109.882812 Z M 7.148438 0.0507812"/></clipPath><clipPath id="h"><path d="M 100.488281 23.234375 C 94.859375 22.710938 89.441406 23.496094 84.496094 25.3125 C 80.335938 26.824219 75.667969 25.066406 73.609375 21.109375 C 69.375 13.246094 61.289062 7.625 51.714844 7.035156 C 45.484375 6.652344 39.59375 8.46875 34.851562 11.773438 C 27.210938 17.136719 23.109375 26.253906 23.714844 35.597656 L 24.335938 44.710938 C 24.382812 45.835938 23.558594 46.785156 22.433594 46.835938 C 12.207031 47.265625 3.753906 55.289062 3.109375 65.738281 C 2.5625 74.660156 7.964844 82.652344 15.855469 85.730469 C 16.664062 86.015625 17.265625 86.761719 17.390625 87.59375 C 19.585938 99.867188 29.90625 109.457031 42.886719 110.257812 C 52.757812 110.863281 61.710938 106.230469 67.066406 98.722656 C 70.808594 93.472656 77.550781 91.292969 83.535156 93.664062 C 86.988281 95.054688 90.769531 95.878906 94.707031 96.121094 C 114.679688 97.347656 131.878906 82.320312 133.394531 62.496094 C 135.027344 42.679688 120.246094 25.097656 100.488281 23.234375 Z M 100.488281 23.234375"/></clipPath><clipPath id="j"><path d="M 75 101 L 89 101 L 89 115 L 75 115 Z M 75 101"/></clipPath><clipPath id="k"><path d="M 7.148438 0.0507812 L 137.15625 8.046875 L 130.402344 117.878906 L 0.394531 109.882812 Z M 7.148438 0.0507812"/></clipPath><clipPath id="l"><path d="M 7.148438 0.0507812 L 137.15625 8.046875 L 130.402344 117.878906 L 0.394531 109.882812 Z M 7.148438 0.0507812"/></clipPath><clipPath id="m"><path d="M 88.578125 108.53125 C 88.550781 108.96875 88.480469 109.402344 88.367188 109.828125 C 88.257812 110.253906 88.105469 110.664062 87.910156 111.058594 C 87.71875 111.453125 87.488281 111.828125 87.21875 112.179688 C 86.953125 112.527344 86.65625 112.847656 86.324219 113.140625 C 85.996094 113.433594 85.640625 113.6875 85.257812 113.910156 C 84.878906 114.132812 84.480469 114.316406 84.0625 114.457031 C 83.648438 114.601562 83.21875 114.703125 82.785156 114.761719 C 82.347656 114.820312 81.910156 114.835938 81.46875 114.808594 C 81.027344 114.78125 80.597656 114.710938 80.171875 114.601562 C 79.746094 114.488281 79.332031 114.335938 78.9375 114.140625 C 78.542969 113.949219 78.167969 113.71875 77.816406 113.453125 C 77.46875 113.1875 77.144531 112.886719 76.855469 112.558594 C 76.5625 112.226562 76.304688 111.875 76.082031 111.492188 C 75.863281 111.113281 75.679688 110.714844 75.535156 110.296875 C 75.390625 109.882812 75.292969 109.457031 75.230469 109.019531 C 75.171875 108.582031 75.15625 108.144531 75.183594 107.707031 C 75.210938 107.265625 75.28125 106.832031 75.390625 106.40625 C 75.503906 105.980469 75.65625 105.570312 75.851562 105.175781 C 76.042969 104.78125 76.273438 104.40625 76.539062 104.058594 C 76.808594 103.707031 77.105469 103.386719 77.4375 103.09375 C 77.765625 102.800781 78.121094 102.546875 78.5 102.324219 C 78.882812 102.101562 79.28125 101.921875 79.699219 101.777344 C 80.113281 101.632812 80.539062 101.53125 80.976562 101.472656 C 81.414062 101.414062 81.851562 101.398438 82.292969 101.425781 C 82.730469 101.453125 83.164062 101.523438 83.589844 101.632812 C 84.015625 101.746094 84.425781 101.898438 84.824219 102.09375 C 85.21875 102.285156 85.59375 102.515625 85.945312 102.78125 C 86.292969 103.046875 86.613281 103.347656 86.90625 103.675781 C 87.199219 104.007812 87.457031 104.363281 87.675781 104.742188 C 87.898438 105.121094 88.082031 105.519531 88.226562 105.9375 C 88.367188 106.351562 88.46875 106.78125 88.527344 107.214844 C 88.589844 107.652344 88.605469 108.089844 88.578125 108.53125 Z M 88.578125 108.53125"/></clipPath><clipPath id="o"><path d="M 77 4 L 92 4 L 92 19 L 77 19 Z M 77 4"/></clipPath><clipPath id="p"><path d="M 7.148438 0.0507812 L 137.15625 8.046875 L 130.402344 117.878906 L 0.394531 109.882812 Z M 7.148438 0.0507812"/></clipPath><clipPath id="q"><path d="M 7.148438 0.0507812 L 137.15625 8.046875 L 130.402344 117.878906 L 0.394531 109.882812 Z M 7.148438 0.0507812"/></clipPath><clipPath id="r"><path d="M 91.039062 11.925781 C 91.011719 12.363281 90.945312 12.792969 90.832031 13.214844 C 90.722656 13.636719 90.570312 14.042969 90.378906 14.433594 C 90.1875 14.828125 89.957031 15.195312 89.695312 15.542969 C 89.429688 15.890625 89.132812 16.210938 88.804688 16.5 C 88.480469 16.789062 88.128906 17.042969 87.75 17.261719 C 87.371094 17.480469 86.976562 17.664062 86.5625 17.804688 C 86.152344 17.945312 85.730469 18.046875 85.296875 18.105469 C 84.863281 18.164062 84.429688 18.179688 83.992188 18.152344 C 83.558594 18.125 83.128906 18.058594 82.707031 17.945312 C 82.285156 17.835938 81.875 17.683594 81.484375 17.492188 C 81.089844 17.300781 80.722656 17.074219 80.375 16.808594 C 80.027344 16.542969 79.707031 16.25 79.417969 15.921875 C 79.128906 15.59375 78.875 15.242188 78.65625 14.867188 C 78.433594 14.488281 78.253906 14.09375 78.113281 13.679688 C 77.96875 13.269531 77.871094 12.84375 77.808594 12.414062 C 77.75 11.980469 77.734375 11.546875 77.761719 11.109375 C 77.789062 10.675781 77.859375 10.246094 77.96875 9.824219 C 78.082031 9.402344 78.234375 8.996094 78.425781 8.605469 C 78.617188 8.210938 78.84375 7.84375 79.109375 7.496094 C 79.371094 7.148438 79.667969 6.828125 79.996094 6.539062 C 80.324219 6.25 80.675781 5.996094 81.050781 5.777344 C 81.429688 5.558594 81.824219 5.375 82.238281 5.234375 C 82.648438 5.09375 83.074219 4.992188 83.507812 4.933594 C 83.9375 4.875 84.371094 4.859375 84.808594 4.886719 C 85.246094 4.914062 85.675781 4.980469 86.097656 5.09375 C 86.519531 5.203125 86.925781 5.355469 87.316406 5.546875 C 87.710938 5.738281 88.082031 5.964844 88.429688 6.230469 C 88.777344 6.496094 89.09375 6.789062 89.382812 7.117188 C 89.671875 7.445312 89.925781 7.796875 90.148438 8.171875 C 90.367188 8.550781 90.546875 8.945312 90.691406 9.359375 C 90.832031 9.769531 90.933594 10.191406 90.992188 10.625 C 91.050781 11.058594 91.066406 11.492188 91.039062 11.925781 Z M 91.039062 11.925781"/></clipPath><clipPath id="t"><path d="M 7 36 L 17 36 L 17 46 L 7 46 Z M 7 36"/></clipPath><clipPath id="u"><path d="M 7.148438 0.0507812 L 137.15625 8.046875 L 130.402344 117.878906 L 0.394531 109.882812 Z M 7.148438 0.0507812"/></clipPath><clipPath id="v"><path d="M 7.148438 0.0507812 L 137.15625 8.046875 L 130.402344 117.878906 L 0.394531 109.882812 Z M 7.148438 0.0507812"/></clipPath><clipPath id="w"><path d="M 16.0625 41.140625 C 16.046875 41.421875 16 41.699219 15.929688 41.96875 C 15.855469 42.242188 15.757812 42.503906 15.636719 42.757812 C 15.511719 43.011719 15.363281 43.25 15.195312 43.476562 C 15.023438 43.699219 14.832031 43.90625 14.621094 44.09375 C 14.410156 44.277344 14.179688 44.441406 13.9375 44.585938 C 13.695312 44.726562 13.4375 44.84375 13.171875 44.933594 C 12.90625 45.027344 12.632812 45.089844 12.351562 45.128906 C 12.074219 45.167969 11.792969 45.179688 11.511719 45.160156 C 11.230469 45.144531 10.953125 45.097656 10.679688 45.027344 C 10.40625 44.953125 10.144531 44.855469 9.890625 44.734375 C 9.636719 44.609375 9.398438 44.460938 9.171875 44.292969 C 8.949219 44.121094 8.742188 43.929688 8.554688 43.71875 C 8.367188 43.507812 8.203125 43.28125 8.0625 43.035156 C 7.917969 42.792969 7.804688 42.539062 7.710938 42.273438 C 7.621094 42.003906 7.554688 41.730469 7.515625 41.453125 C 7.480469 41.171875 7.46875 40.894531 7.484375 40.613281 C 7.503906 40.332031 7.546875 40.054688 7.621094 39.78125 C 7.691406 39.507812 7.789062 39.246094 7.914062 38.992188 C 8.035156 38.738281 8.183594 38.5 8.355469 38.273438 C 8.527344 38.050781 8.714844 37.84375 8.929688 37.660156 C 9.140625 37.472656 9.367188 37.308594 9.609375 37.164062 C 9.855469 37.023438 10.109375 36.90625 10.375 36.816406 C 10.644531 36.722656 10.917969 36.660156 11.195312 36.621094 C 11.476562 36.582031 11.757812 36.574219 12.039062 36.589844 C 12.320312 36.605469 12.597656 36.652344 12.871094 36.722656 C 13.140625 36.796875 13.40625 36.894531 13.660156 37.015625 C 13.914062 37.140625 14.152344 37.289062 14.375 37.457031 C 14.601562 37.628906 14.804688 37.820312 14.992188 38.03125 C 15.179688 38.242188 15.34375 38.46875 15.484375 38.714844 C 15.628906 38.957031 15.746094 39.210938 15.835938 39.480469 C 15.929688 39.746094 15.992188 40.019531 16.03125 40.296875 C 16.070312 40.578125 16.078125 40.859375 16.0625 41.140625 Z M 16.0625 41.140625"/></clipPath><clipPath id="d"><path d="M0 0H137V118H0z"/></clipPath><clipPath id="A"><path d="M 31 22 L 141 22 L 141 146 L 31 146 Z M 31 22"/></clipPath><clipPath id="B"><path d="M 164.832031 64.136719 L 90.785156 170.386719 L 0.507812 107.472656 L 74.550781 1.222656 Z M 164.832031 64.136719"/></clipPath><clipPath id="C"><path d="M 164.832031 64.136719 L 90.785156 170.386719 L 0.507812 107.472656 L 74.550781 1.222656 Z M 164.832031 64.136719"/></clipPath><clipPath id="D"><path d="M 96.78125 131.335938 C 100.136719 126.828125 102.265625 121.820312 103.269531 116.675781 C 104.132812 112.351562 108.046875 109.304688 112.488281 109.617188 C 121.390625 110.113281 130.371094 106.175781 135.828125 98.347656 C 139.375 93.257812 140.867188 87.308594 140.5 81.5625 C 139.871094 72.28125 134.207031 64.050781 125.914062 59.699219 L 117.8125 55.480469 C 116.832031 54.9375 116.445312 53.742188 116.984375 52.761719 C 121.902344 43.851562 119.425781 32.496094 110.835938 26.507812 C 103.5 21.398438 93.882812 21.828125 87.175781 26.925781 C 86.515625 27.464844 85.566406 27.589844 84.792969 27.261719 C 73.179688 22.734375 59.65625 26.507812 52.261719 37.117188 C 46.640625 45.183594 45.96875 55.199219 49.609375 63.65625 C 52.15625 69.566406 50.53125 76.425781 45.410156 80.273438 C 42.4375 82.484375 39.78125 85.265625 37.539062 88.484375 C 26.164062 104.808594 30.101562 127.238281 46.242188 138.84375 C 62.316406 150.546875 84.972656 147.148438 96.78125 131.335938 Z M 96.78125 131.335938"/></clipPath><clipPath id="F"><path d="M 27 64 L 41 64 L 41 79 L 27 79 Z M 27 64"/></clipPath><clipPath id="G"><path d="M 164.832031 64.136719 L 90.785156 170.386719 L 0.507812 107.472656 L 74.550781 1.222656 Z M 164.832031 64.136719"/></clipPath><clipPath id="H"><path d="M 164.832031 64.136719 L 90.785156 170.386719 L 0.507812 107.472656 L 74.550781 1.222656 Z M 164.832031 64.136719"/></clipPath><clipPath id="I"><path d="M 30.113281 76.820312 C 29.75 76.566406 29.417969 76.28125 29.113281 75.964844 C 28.808594 75.648438 28.535156 75.304688 28.296875 74.933594 C 28.058594 74.566406 27.859375 74.175781 27.699219 73.765625 C 27.539062 73.355469 27.417969 72.9375 27.339844 72.503906 C 27.261719 72.074219 27.226562 71.636719 27.234375 71.199219 C 27.242188 70.761719 27.292969 70.328125 27.386719 69.898438 C 27.480469 69.46875 27.613281 69.054688 27.789062 68.652344 C 27.964844 68.25 28.175781 67.871094 28.425781 67.511719 C 28.675781 67.152344 28.960938 66.820312 29.277344 66.519531 C 29.59375 66.214844 29.933594 65.945312 30.304688 65.710938 C 30.675781 65.472656 31.0625 65.277344 31.472656 65.117188 C 31.882812 64.957031 32.300781 64.839844 32.734375 64.765625 C 33.167969 64.6875 33.601562 64.65625 34.042969 64.664062 C 34.480469 64.675781 34.917969 64.726562 35.347656 64.820312 C 35.777344 64.917969 36.191406 65.050781 36.59375 65.230469 C 36.996094 65.40625 37.378906 65.621094 37.742188 65.871094 C 38.101562 66.125 38.4375 66.40625 38.742188 66.726562 C 39.046875 67.042969 39.316406 67.386719 39.554688 67.753906 C 39.792969 68.125 39.992188 68.515625 40.15625 68.925781 C 40.316406 69.332031 40.433594 69.753906 40.515625 70.183594 C 40.59375 70.617188 40.628906 71.054688 40.621094 71.492188 C 40.613281 71.929688 40.5625 72.363281 40.46875 72.792969 C 40.375 73.21875 40.242188 73.636719 40.066406 74.035156 C 39.890625 74.4375 39.679688 74.820312 39.429688 75.179688 C 39.175781 75.539062 38.894531 75.871094 38.578125 76.171875 C 38.261719 76.476562 37.917969 76.746094 37.550781 76.980469 C 37.179688 77.21875 36.789062 77.414062 36.382812 77.574219 C 35.972656 77.730469 35.550781 77.851562 35.121094 77.925781 C 34.6875 78.003906 34.25 78.035156 33.8125 78.027344 C 33.371094 78.015625 32.9375 77.964844 32.507812 77.867188 C 32.078125 77.773438 31.664062 77.636719 31.257812 77.460938 C 30.855469 77.285156 30.472656 77.070312 30.113281 76.820312 Z M 30.113281 76.820312"/></clipPath><clipPath id="K"><path d="M 108 117 L 122 117 L 122 131 L 108 131 Z M 108 117"/></clipPath><clipPath id="L"><path d="M 164.832031 64.136719 L 90.785156 170.386719 L 0.507812 107.472656 L 74.550781 1.222656 Z M 164.832031 64.136719"/></clipPath><clipPath id="M"><path d="M 164.832031 64.136719 L 90.785156 170.386719 L 0.507812 107.472656 L 74.550781 1.222656 Z M 164.832031 64.136719"/></clipPath><clipPath id="N"><path d="M 111.316406 129.199219 C 110.957031 128.949219 110.628906 128.667969 110.324219 128.355469 C 110.023438 128.039062 109.753906 127.699219 109.515625 127.332031 C 109.28125 126.964844 109.082031 126.578125 108.925781 126.175781 C 108.765625 125.769531 108.644531 125.351562 108.566406 124.921875 C 108.492188 124.496094 108.457031 124.0625 108.460938 123.628906 C 108.46875 123.195312 108.519531 122.765625 108.613281 122.339844 C 108.703125 121.914062 108.839844 121.503906 109.011719 121.105469 C 109.183594 120.707031 109.394531 120.332031 109.644531 119.972656 C 109.894531 119.617188 110.171875 119.289062 110.488281 118.988281 C 110.800781 118.6875 111.140625 118.421875 111.507812 118.1875 C 111.871094 117.953125 112.257812 117.757812 112.664062 117.601562 C 113.070312 117.441406 113.484375 117.328125 113.914062 117.25 C 114.34375 117.175781 114.777344 117.144531 115.210938 117.152344 C 115.648438 117.160156 116.078125 117.214844 116.503906 117.308594 C 116.929688 117.402344 117.339844 117.535156 117.742188 117.710938 C 118.140625 117.886719 118.519531 118.097656 118.878906 118.347656 C 119.234375 118.597656 119.566406 118.878906 119.867188 119.195312 C 120.171875 119.507812 120.441406 119.847656 120.675781 120.214844 C 120.914062 120.582031 121.109375 120.96875 121.269531 121.375 C 121.429688 121.78125 121.546875 122.195312 121.625 122.625 C 121.703125 123.054688 121.738281 123.484375 121.730469 123.917969 C 121.722656 124.355469 121.671875 124.785156 121.582031 125.207031 C 121.488281 125.632812 121.355469 126.042969 121.183594 126.441406 C 121.007812 126.839844 120.796875 127.21875 120.550781 127.574219 C 120.300781 127.929688 120.019531 128.257812 119.707031 128.558594 C 119.394531 128.859375 119.054688 129.128906 118.6875 129.359375 C 118.320312 129.59375 117.933594 129.789062 117.53125 129.949219 C 117.125 130.105469 116.707031 130.222656 116.277344 130.296875 C 115.851562 130.371094 115.417969 130.40625 114.984375 130.394531 C 114.546875 130.386719 114.117188 130.335938 113.691406 130.242188 C 113.265625 130.144531 112.851562 130.011719 112.453125 129.835938 C 112.054688 129.660156 111.675781 129.449219 111.316406 129.199219 Z M 111.316406 129.199219"/></clipPath><clipPath id="P"><path d="M 123 42 L 132 42 L 132 52 L 123 52 Z M 123 42"/></clipPath><clipPath id="Q"><path d="M 164.832031 64.136719 L 90.785156 170.386719 L 0.507812 107.472656 L 74.550781 1.222656 Z M 164.832031 64.136719"/></clipPath><clipPath id="R"><path d="M 164.832031 64.136719 L 90.785156 170.386719 L 0.507812 107.472656 L 74.550781 1.222656 Z M 164.832031 64.136719"/></clipPath><clipPath id="S"><path d="M 125.140625 50.316406 C 124.910156 50.15625 124.695312 49.972656 124.5 49.769531 C 124.304688 49.566406 124.132812 49.347656 123.980469 49.109375 C 123.828125 48.875 123.699219 48.625 123.597656 48.363281 C 123.492188 48.101562 123.417969 47.832031 123.367188 47.554688 C 123.316406 47.277344 123.292969 47 123.296875 46.71875 C 123.304688 46.4375 123.335938 46.160156 123.394531 45.886719 C 123.453125 45.609375 123.539062 45.34375 123.652344 45.085938 C 123.765625 44.832031 123.902344 44.585938 124.0625 44.355469 C 124.222656 44.125 124.402344 43.914062 124.605469 43.71875 C 124.808594 43.527344 125.027344 43.355469 125.265625 43.203125 C 125.5 43.050781 125.75 42.925781 126.011719 42.824219 C 126.273438 42.722656 126.542969 42.644531 126.820312 42.597656 C 127.097656 42.550781 127.375 42.527344 127.65625 42.535156 C 127.9375 42.539062 128.21875 42.574219 128.492188 42.632812 C 128.765625 42.695312 129.035156 42.78125 129.292969 42.894531 C 129.550781 43.007812 129.792969 43.144531 130.027344 43.308594 C 130.257812 43.46875 130.472656 43.648438 130.667969 43.851562 C 130.863281 44.054688 131.035156 44.277344 131.1875 44.511719 C 131.339844 44.75 131.46875 45 131.570312 45.261719 C 131.675781 45.523438 131.75 45.792969 131.800781 46.070312 C 131.851562 46.347656 131.875 46.625 131.871094 46.90625 C 131.863281 47.1875 131.832031 47.464844 131.773438 47.738281 C 131.714844 48.011719 131.628906 48.277344 131.515625 48.535156 C 131.402344 48.792969 131.265625 49.035156 131.105469 49.265625 C 130.945312 49.496094 130.765625 49.707031 130.5625 49.902344 C 130.359375 50.097656 130.140625 50.269531 129.902344 50.421875 C 129.667969 50.570312 129.417969 50.699219 129.15625 50.800781 C 128.894531 50.902344 128.625 50.976562 128.347656 51.027344 C 128.070312 51.074219 127.792969 51.097656 127.511719 51.089844 C 127.226562 51.082031 126.949219 51.050781 126.675781 50.988281 C 126.398438 50.929688 126.132812 50.839844 125.875 50.726562 C 125.617188 50.613281 125.371094 50.476562 125.140625 50.316406 Z M 125.140625 50.316406"/></clipPath><clipPath id="z"><path d="M0 0H165V171H0z"/></clipPath><clipPath id="U"><path d="M 0.714844 27 L 749.285156 27 L 749.285156 106 L 0.714844 106 Z M 0.714844 27"/></clipPath><clipPath id="X"><path d="M 0.714844 0.308594 L 749.285156 0.308594 L 749.285156 78 L 0.714844 78 Z M 0.714844 0.308594"/></clipPath><clipPath id="W"><path d="M0 0H750V79H0z"/></clipPath><clipPath id="Y"><path d="M 0.714844 75 L 110 75 L 110 194 L 0.714844 194 Z M 0.714844 75"/></clipPath><clipPath id="ab"><path d="M 0.714844 7 L 106 7 L 106 111 L 0.714844 111 Z M 0.714844 7"/></clipPath><clipPath id="ac"><path d="M -20.417969 0.332031 L 109.589844 8.328125 L 102.835938 118.160156 L -27.171875 110.164062 Z M -20.417969 0.332031"/></clipPath><clipPath id="ad"><path d="M -20.417969 0.332031 L 109.589844 8.328125 L 102.835938 118.160156 L -27.171875 110.164062 Z M -20.417969 0.332031"/></clipPath><clipPath id="ae"><path d="M 72.921875 23.515625 C 67.292969 22.992188 61.878906 23.777344 56.929688 25.597656 C 52.769531 27.109375 48.101562 25.347656 46.042969 21.390625 C 41.808594 13.53125 33.722656 7.90625 24.148438 7.316406 C 17.917969 6.933594 12.027344 8.75 7.285156 12.054688 C -0.355469 17.417969 -4.457031 26.535156 -3.851562 35.882812 L -3.230469 44.996094 C -3.183594 46.117188 -4.007812 47.066406 -5.132812 47.117188 C -15.359375 47.546875 -23.8125 55.570312 -24.457031 66.019531 C -25.003906 74.945312 -19.601562 82.9375 -11.710938 86.015625 C -10.902344 86.300781 -10.300781 87.042969 -10.175781 87.875 C -7.980469 100.148438 2.339844 109.742188 15.320312 110.539062 C 25.191406 111.144531 34.144531 106.511719 39.5 99.003906 C 43.246094 93.753906 49.984375 91.574219 55.96875 93.949219 C 59.421875 95.339844 63.203125 96.160156 67.140625 96.402344 C 87.113281 97.628906 104.3125 82.601562 105.828125 62.777344 C 107.460938 42.964844 92.679688 25.378906 72.921875 23.515625 Z M 72.921875 23.515625"/></clipPath><clipPath id="ag"><path d="M 47 101 L 62 101 L 62 116 L 47 116 Z M 47 101"/></clipPath><clipPath id="ah"><path d="M -20.417969 0.332031 L 109.589844 8.328125 L 102.835938 118.160156 L -27.171875 110.164062 Z M -20.417969 0.332031"/></clipPath><clipPath id="ai"><path d="M -20.417969 0.332031 L 109.589844 8.328125 L 102.835938 118.160156 L -27.171875 110.164062 Z M -20.417969 0.332031"/></clipPath><clipPath id="aj"><path d="M 61.011719 108.8125 C 60.984375 109.25 60.914062 109.683594 60.800781 110.109375 C 60.691406 110.535156 60.539062 110.945312 60.34375 111.339844 C 60.152344 111.738281 59.921875 112.109375 59.652344 112.460938 C 59.386719 112.808594 59.089844 113.132812 58.757812 113.421875 C 58.429688 113.714844 58.074219 113.972656 57.691406 114.191406 C 57.3125 114.414062 56.914062 114.597656 56.496094 114.738281 C 56.082031 114.882812 55.652344 114.984375 55.21875 115.042969 C 54.78125 115.101562 54.34375 115.117188 53.902344 115.09375 C 53.464844 115.066406 53.03125 114.996094 52.605469 114.882812 C 52.179688 114.769531 51.765625 114.617188 51.371094 114.425781 C 50.976562 114.230469 50.601562 114 50.25 113.734375 C 49.902344 113.46875 49.578125 113.171875 49.289062 112.839844 C 48.996094 112.511719 48.738281 112.15625 48.515625 111.773438 C 48.296875 111.394531 48.113281 110.996094 47.96875 110.582031 C 47.824219 110.164062 47.726562 109.738281 47.664062 109.300781 C 47.605469 108.863281 47.589844 108.425781 47.617188 107.988281 C 47.644531 107.546875 47.714844 107.117188 47.824219 106.691406 C 47.9375 106.265625 48.089844 105.855469 48.285156 105.457031 C 48.476562 105.0625 48.707031 104.691406 48.972656 104.339844 C 49.242188 103.988281 49.539062 103.667969 49.871094 103.375 C 50.199219 103.085938 50.554688 102.828125 50.9375 102.605469 C 51.316406 102.386719 51.714844 102.203125 52.132812 102.058594 C 52.546875 101.917969 52.976562 101.816406 53.410156 101.757812 C 53.847656 101.695312 54.285156 101.679688 54.726562 101.707031 C 55.164062 101.734375 55.597656 101.804688 56.023438 101.917969 C 56.449219 102.027344 56.863281 102.183594 57.257812 102.375 C 57.652344 102.566406 58.027344 102.796875 58.378906 103.066406 C 58.726562 103.332031 59.050781 103.628906 59.339844 103.960938 C 59.632812 104.289062 59.890625 104.644531 60.109375 105.023438 C 60.332031 105.40625 60.515625 105.804688 60.660156 106.21875 C 60.800781 106.636719 60.902344 107.0625 60.964844 107.5 C 61.023438 107.933594 61.039062 108.371094 61.011719 108.8125 Z M 61.011719 108.8125"/></clipPath><clipPath id="al"><path d="M 50 5 L 64 5 L 64 19 L 50 19 Z M 50 5"/></clipPath><clipPath id="am"><path d="M -20.417969 0.332031 L 109.589844 8.328125 L 102.835938 118.160156 L -27.171875 110.164062 Z M -20.417969 0.332031"/></clipPath><clipPath id="an"><path d="M -20.417969 0.332031 L 109.589844 8.328125 L 102.835938 118.160156 L -27.171875 110.164062 Z M -20.417969 0.332031"/></clipPath><clipPath id="ao"><path d="M 63.472656 12.210938 C 63.445312 12.644531 63.378906 13.074219 63.265625 13.496094 C 63.15625 13.917969 63.003906 14.324219 62.8125 14.71875 C 62.621094 15.109375 62.390625 15.480469 62.128906 15.828125 C 61.863281 16.171875 61.566406 16.492188 61.242188 16.78125 C 60.914062 17.070312 60.5625 17.324219 60.183594 17.542969 C 59.804688 17.765625 59.410156 17.945312 59 18.085938 C 58.585938 18.226562 58.164062 18.328125 57.730469 18.386719 C 57.296875 18.445312 56.863281 18.460938 56.425781 18.433594 C 55.992188 18.410156 55.5625 18.339844 55.140625 18.226562 C 54.71875 18.117188 54.308594 17.964844 53.917969 17.773438 C 53.523438 17.582031 53.15625 17.355469 52.808594 17.089844 C 52.460938 16.824219 52.140625 16.53125 51.851562 16.203125 C 51.5625 15.875 51.308594 15.523438 51.089844 15.148438 C 50.867188 14.769531 50.6875 14.375 50.546875 13.964844 C 50.402344 13.550781 50.304688 13.128906 50.246094 12.695312 C 50.183594 12.261719 50.167969 11.828125 50.195312 11.394531 C 50.222656 10.957031 50.292969 10.53125 50.402344 10.105469 C 50.515625 9.683594 50.667969 9.277344 50.859375 8.886719 C 51.050781 8.492188 51.277344 8.125 51.542969 7.777344 C 51.804688 7.429688 52.101562 7.113281 52.429688 6.824219 C 52.757812 6.535156 53.109375 6.28125 53.484375 6.058594 C 53.863281 5.839844 54.257812 5.660156 54.671875 5.515625 C 55.085938 5.375 55.507812 5.273438 55.941406 5.214844 C 56.371094 5.15625 56.808594 5.140625 57.242188 5.167969 C 57.679688 5.195312 58.109375 5.265625 58.53125 5.375 C 58.953125 5.488281 59.359375 5.636719 59.753906 5.828125 C 60.144531 6.019531 60.515625 6.25 60.863281 6.511719 C 61.210938 6.777344 61.527344 7.074219 61.816406 7.398438 C 62.105469 7.726562 62.359375 8.078125 62.582031 8.457031 C 62.800781 8.832031 62.980469 9.226562 63.125 9.640625 C 63.265625 10.054688 63.367188 10.476562 63.425781 10.90625 C 63.484375 11.339844 63.5 11.773438 63.472656 12.210938 Z M 63.472656 12.210938"/></clipPath><clipPath id="aa"><path d="M0 0H110V119H0z"/></clipPath><clipPath id="as"><path d="M 30 22 L 140 22 L 140 146 L 30 146 Z M 30 22"/></clipPath><clipPath id="at"><path d="M 164.265625 63.421875 L 90.222656 169.667969 L -0.0585938 106.753906 L 73.984375 0.503906 Z M 164.265625 63.421875"/></clipPath><clipPath id="au"><path d="M 164.265625 63.421875 L 90.222656 169.667969 L -0.0585938 106.753906 L 73.984375 0.503906 Z M 164.265625 63.421875"/></clipPath><clipPath id="av"><path d="M 96.214844 130.621094 C 99.570312 126.113281 101.699219 121.105469 102.703125 115.957031 C 103.566406 111.636719 107.480469 108.585938 111.921875 108.898438 C 120.824219 109.398438 129.804688 105.457031 135.261719 97.628906 C 138.808594 92.542969 140.300781 86.59375 139.933594 80.84375 C 139.304688 71.5625 133.640625 63.335938 125.347656 58.980469 L 117.246094 54.765625 C 116.265625 54.222656 115.878906 53.023438 116.417969 52.046875 C 121.335938 43.132812 118.859375 31.777344 110.269531 25.792969 C 102.933594 20.679688 93.316406 21.109375 86.609375 26.207031 C 85.949219 26.746094 85 26.871094 84.226562 26.542969 C 72.613281 22.019531 59.089844 25.789062 51.695312 36.398438 C 46.074219 44.464844 45.402344 54.480469 49.042969 62.9375 C 51.589844 68.851562 49.964844 75.707031 44.84375 79.558594 C 41.871094 81.765625 39.214844 84.550781 36.972656 87.765625 C 25.597656 104.089844 29.535156 126.519531 45.675781 138.125 C 61.75 149.828125 84.40625 146.429688 96.214844 130.621094 Z M 96.214844 130.621094"/></clipPath><clipPath id="ax"><path d="M 26 63 L 41 63 L 41 78 L 26 78 Z M 26 63"/></clipPath><clipPath id="ay"><path d="M 164.265625 63.421875 L 90.222656 169.667969 L -0.0585938 106.753906 L 73.984375 0.503906 Z M 164.265625 63.421875"/></clipPath><clipPath id="az"><path d="M 164.265625 63.421875 L 90.222656 169.667969 L -0.0585938 106.753906 L 73.984375 0.503906 Z M 164.265625 63.421875"/></clipPath><clipPath id="aA"><path d="M 29.546875 76.101562 C 29.183594 75.847656 28.851562 75.566406 28.546875 75.246094 C 28.242188 74.929688 27.96875 74.585938 27.730469 74.21875 C 27.492188 73.847656 27.292969 73.457031 27.132812 73.046875 C 26.972656 72.640625 26.851562 72.21875 26.773438 71.789062 C 26.695312 71.355469 26.660156 70.917969 26.667969 70.480469 C 26.675781 70.042969 26.726562 69.609375 26.820312 69.179688 C 26.914062 68.753906 27.046875 68.335938 27.222656 67.9375 C 27.398438 67.535156 27.609375 67.152344 27.859375 66.792969 C 28.109375 66.433594 28.394531 66.101562 28.710938 65.800781 C 29.027344 65.496094 29.367188 65.226562 29.738281 64.992188 C 30.109375 64.753906 30.496094 64.558594 30.90625 64.398438 C 31.316406 64.242188 31.734375 64.121094 32.167969 64.046875 C 32.601562 63.96875 33.035156 63.9375 33.476562 63.945312 C 33.914062 63.957031 34.351562 64.007812 34.78125 64.105469 C 35.210938 64.199219 35.625 64.335938 36.027344 64.511719 C 36.433594 64.6875 36.8125 64.902344 37.175781 65.152344 C 37.535156 65.40625 37.871094 65.691406 38.175781 66.007812 C 38.480469 66.324219 38.75 66.667969 38.988281 67.039062 C 39.226562 67.40625 39.425781 67.796875 39.589844 68.207031 C 39.75 68.617188 39.871094 69.035156 39.949219 69.46875 C 40.027344 69.898438 40.0625 70.335938 40.054688 70.773438 C 40.046875 71.210938 39.996094 71.644531 39.902344 72.074219 C 39.808594 72.503906 39.675781 72.917969 39.5 73.320312 C 39.324219 73.722656 39.113281 74.101562 38.863281 74.460938 C 38.609375 74.820312 38.328125 75.152344 38.011719 75.453125 C 37.695312 75.757812 37.351562 76.027344 36.984375 76.261719 C 36.613281 76.5 36.222656 76.695312 35.816406 76.855469 C 35.40625 77.015625 34.984375 77.132812 34.554688 77.207031 C 34.121094 77.285156 33.683594 77.316406 33.246094 77.308594 C 32.804688 77.296875 32.371094 77.246094 31.941406 77.152344 C 31.511719 77.054688 31.097656 76.921875 30.691406 76.742188 C 30.289062 76.566406 29.90625 76.351562 29.546875 76.101562 Z M 29.546875 76.101562"/></clipPath><clipPath id="aC"><path d="M 107 116 L 122 116 L 122 130 L 107 130 Z M 107 116"/></clipPath><clipPath id="aD"><path d="M 164.265625 63.421875 L 90.222656 169.667969 L -0.0585938 106.753906 L 73.984375 0.503906 Z M 164.265625 63.421875"/></clipPath><clipPath id="aE"><path d="M 164.265625 63.421875 L 90.222656 169.667969 L -0.0585938 106.753906 L 73.984375 0.503906 Z M 164.265625 63.421875"/></clipPath><clipPath id="aF"><path d="M 110.75 128.480469 C 110.390625 128.230469 110.0625 127.949219 109.757812 127.636719 C 109.457031 127.320312 109.1875 126.980469 108.949219 126.613281 C 108.714844 126.246094 108.515625 125.863281 108.359375 125.457031 C 108.199219 125.050781 108.078125 124.632812 108 124.207031 C 107.925781 123.777344 107.890625 123.347656 107.898438 122.910156 C 107.902344 122.476562 107.953125 122.046875 108.046875 121.621094 C 108.140625 121.199219 108.273438 120.785156 108.445312 120.386719 C 108.617188 119.992188 108.828125 119.613281 109.078125 119.257812 C 109.328125 118.902344 109.605469 118.570312 109.921875 118.269531 C 110.234375 117.972656 110.574219 117.703125 110.941406 117.46875 C 111.304688 117.234375 111.691406 117.039062 112.097656 116.882812 C 112.503906 116.726562 112.917969 116.609375 113.347656 116.535156 C 113.777344 116.457031 114.210938 116.425781 114.644531 116.433594 C 115.082031 116.445312 115.511719 116.496094 115.9375 116.589844 C 116.363281 116.683594 116.777344 116.820312 117.175781 116.996094 C 117.574219 117.167969 117.953125 117.382812 118.3125 117.632812 C 118.667969 117.878906 119 118.164062 119.300781 118.476562 C 119.605469 118.792969 119.875 119.132812 120.109375 119.5 C 120.347656 119.867188 120.542969 120.25 120.703125 120.65625 C 120.863281 121.0625 120.980469 121.480469 121.058594 121.90625 C 121.136719 122.335938 121.171875 122.765625 121.164062 123.203125 C 121.15625 123.636719 121.105469 124.066406 121.015625 124.492188 C 120.921875 124.914062 120.789062 125.328125 120.617188 125.726562 C 120.441406 126.121094 120.230469 126.5 119.984375 126.855469 C 119.734375 127.210938 119.453125 127.542969 119.140625 127.839844 C 118.828125 128.140625 118.488281 128.410156 118.121094 128.644531 C 117.753906 128.875 117.367188 129.074219 116.964844 129.230469 C 116.558594 129.386719 116.140625 129.503906 115.710938 129.578125 C 115.285156 129.65625 114.851562 129.6875 114.417969 129.679688 C 113.980469 129.667969 113.550781 129.617188 113.125 129.523438 C 112.699219 129.429688 112.285156 129.292969 111.886719 129.117188 C 111.488281 128.945312 111.109375 128.730469 110.75 128.480469 Z M 110.75 128.480469"/></clipPath><clipPath id="aH"><path d="M 122 41 L 132 41 L 132 51 L 122 51 Z M 122 41"/></clipPath><clipPath id="aI"><path d="M 164.265625 63.421875 L 90.222656 169.667969 L -0.0585938 106.753906 L 73.984375 0.503906 Z M 164.265625 63.421875"/></clipPath><clipPath id="aJ"><path d="M 164.265625 63.421875 L 90.222656 169.667969 L -0.0585938 106.753906 L 73.984375 0.503906 Z M 164.265625 63.421875"/></clipPath><clipPath id="aK"><path d="M 124.574219 49.597656 C 124.34375 49.4375 124.128906 49.253906 123.933594 49.050781 C 123.738281 48.851562 123.566406 48.628906 123.414062 48.394531 C 123.261719 48.15625 123.132812 47.90625 123.03125 47.644531 C 122.925781 47.382812 122.851562 47.113281 122.800781 46.835938 C 122.75 46.558594 122.726562 46.28125 122.730469 46 C 122.738281 45.71875 122.769531 45.441406 122.828125 45.167969 C 122.886719 44.894531 122.972656 44.628906 123.085938 44.371094 C 123.199219 44.113281 123.335938 43.871094 123.496094 43.640625 C 123.65625 43.410156 123.835938 43.195312 124.039062 43.003906 C 124.242188 42.808594 124.460938 42.636719 124.699219 42.484375 C 124.933594 42.335938 125.183594 42.207031 125.445312 42.105469 C 125.707031 42.003906 125.976562 41.929688 126.253906 41.878906 C 126.53125 41.832031 126.808594 41.808594 127.089844 41.816406 C 127.371094 41.824219 127.652344 41.855469 127.925781 41.917969 C 128.199219 41.976562 128.46875 42.066406 128.726562 42.175781 C 128.984375 42.289062 129.230469 42.429688 129.460938 42.589844 C 129.691406 42.75 129.90625 42.933594 130.101562 43.136719 C 130.296875 43.339844 130.46875 43.558594 130.621094 43.796875 C 130.773438 44.03125 130.902344 44.28125 131.003906 44.542969 C 131.109375 44.804688 131.183594 45.074219 131.234375 45.351562 C 131.285156 45.628906 131.308594 45.90625 131.304688 46.1875 C 131.296875 46.46875 131.265625 46.746094 131.207031 47.019531 C 131.148438 47.296875 131.0625 47.5625 130.949219 47.816406 C 130.835938 48.074219 130.699219 48.320312 130.539062 48.546875 C 130.378906 48.777344 130.199219 48.992188 129.996094 49.183594 C 129.792969 49.378906 129.574219 49.550781 129.335938 49.703125 C 129.101562 49.855469 128.851562 49.980469 128.589844 50.082031 C 128.328125 50.183594 128.058594 50.257812 127.78125 50.308594 C 127.503906 50.355469 127.226562 50.378906 126.945312 50.371094 C 126.664062 50.367188 126.382812 50.332031 126.109375 50.269531 C 125.832031 50.210938 125.566406 50.125 125.308594 50.011719 C 125.050781 49.898438 124.804688 49.761719 124.574219 49.597656 Z M 124.574219 49.597656"/></clipPath><clipPath id="ar"><path d="M0 0H165V170H0z"/></clipPath><clipPath id="aO"><path d="M 3 7 L 134 7 L 134 111 L 3 111 Z M 3 7"/></clipPath><clipPath id="aP"><path d="M 7.316406 0.699219 L 137.324219 8.695312 L 130.570312 118.527344 L 0.5625 110.53125 Z M 7.316406 0.699219"/></clipPath><clipPath id="aQ"><path d="M 7.316406 0.699219 L 137.324219 8.695312 L 130.570312 118.527344 L 0.5625 110.53125 Z M 7.316406 0.699219"/></clipPath><clipPath id="aR"><path d="M 100.652344 23.882812 C 95.023438 23.359375 89.609375 24.144531 84.664062 25.964844 C 80.5 27.476562 75.832031 25.714844 73.777344 21.757812 C 69.542969 13.898438 61.457031 8.273438 51.878906 7.683594 C 45.652344 7.300781 39.761719 9.117188 35.019531 12.421875 C 27.375 17.785156 23.277344 26.902344 23.882812 36.25 L 24.5 45.363281 C 24.550781 46.484375 23.726562 47.433594 22.601562 47.484375 C 12.375 47.914062 3.917969 55.9375 3.277344 66.386719 C 2.726562 75.3125 8.132812 83.304688 16.023438 86.382812 C 16.832031 86.667969 17.433594 87.410156 17.558594 88.242188 C 19.753906 100.515625 30.074219 110.109375 43.054688 110.90625 C 52.925781 111.511719 61.878906 106.878906 67.234375 99.371094 C 70.976562 94.121094 77.714844 91.941406 83.703125 94.316406 C 87.15625 95.707031 90.9375 96.527344 94.875 96.769531 C 114.847656 97.996094 132.046875 82.96875 133.5625 63.144531 C 135.191406 43.332031 120.410156 25.746094 100.652344 23.882812 Z M 100.652344 23.882812"/></clipPath><clipPath id="aT"><path d="M 75 102 L 89 102 L 89 116 L 75 116 Z M 75 102"/></clipPath><clipPath id="aU"><path d="M 7.316406 0.699219 L 137.324219 8.695312 L 130.570312 118.527344 L 0.5625 110.53125 Z M 7.316406 0.699219"/></clipPath><clipPath id="aV"><path d="M 7.316406 0.699219 L 137.324219 8.695312 L 130.570312 118.527344 L 0.5625 110.53125 Z M 7.316406 0.699219"/></clipPath><clipPath id="aW"><path d="M 88.746094 109.179688 C 88.71875 109.617188 88.648438 110.050781 88.535156 110.476562 C 88.421875 110.902344 88.269531 111.3125 88.078125 111.707031 C 87.882812 112.105469 87.652344 112.476562 87.386719 112.828125 C 87.121094 113.179688 86.820312 113.5 86.492188 113.789062 C 86.164062 114.082031 85.808594 114.339844 85.425781 114.558594 C 85.046875 114.78125 84.648438 114.964844 84.230469 115.105469 C 83.8125 115.25 83.386719 115.351562 82.949219 115.410156 C 82.515625 115.46875 82.074219 115.484375 81.636719 115.460938 C 81.195312 115.433594 80.761719 115.363281 80.335938 115.25 C 79.910156 115.136719 79.5 114.984375 79.105469 114.792969 C 78.707031 114.597656 78.335938 114.367188 77.984375 114.101562 C 77.632812 113.835938 77.3125 113.539062 77.019531 113.207031 C 76.730469 112.878906 76.472656 112.523438 76.25 112.140625 C 76.027344 111.761719 75.847656 111.363281 75.703125 110.949219 C 75.558594 110.53125 75.457031 110.105469 75.398438 109.667969 C 75.339844 109.234375 75.324219 108.792969 75.351562 108.355469 C 75.378906 107.914062 75.445312 107.484375 75.558594 107.058594 C 75.671875 106.632812 75.824219 106.222656 76.019531 105.824219 C 76.210938 105.429688 76.441406 105.058594 76.707031 104.707031 C 76.976562 104.355469 77.273438 104.035156 77.601562 103.742188 C 77.933594 103.453125 78.289062 103.195312 78.667969 102.972656 C 79.050781 102.753906 79.449219 102.570312 79.863281 102.425781 C 80.28125 102.285156 80.707031 102.183594 81.144531 102.125 C 81.582031 102.0625 82.019531 102.046875 82.460938 102.074219 C 82.898438 102.101562 83.332031 102.171875 83.757812 102.285156 C 84.183594 102.394531 84.59375 102.550781 84.992188 102.742188 C 85.386719 102.933594 85.761719 103.164062 86.109375 103.433594 C 86.460938 103.699219 86.78125 103.996094 87.074219 104.328125 C 87.367188 104.65625 87.621094 105.011719 87.84375 105.390625 C 88.066406 105.773438 88.25 106.171875 88.390625 106.585938 C 88.535156 107.003906 88.636719 107.429688 88.695312 107.867188 C 88.753906 108.300781 88.773438 108.738281 88.746094 109.179688 Z M 88.746094 109.179688"/></clipPath><clipPath id="aY"><path d="M 77 5 L 92 5 L 92 19 L 77 19 Z M 77 5"/></clipPath><clipPath id="aZ"><path d="M 7.316406 0.699219 L 137.324219 8.695312 L 130.570312 118.527344 L 0.5625 110.53125 Z M 7.316406 0.699219"/></clipPath><clipPath id="ba"><path d="M 7.316406 0.699219 L 137.324219 8.695312 L 130.570312 118.527344 L 0.5625 110.53125 Z M 7.316406 0.699219"/></clipPath><clipPath id="bb"><path d="M 91.207031 12.578125 C 91.179688 13.011719 91.109375 13.441406 91 13.863281 C 90.886719 14.285156 90.738281 14.691406 90.546875 15.085938 C 90.351562 15.476562 90.125 15.847656 89.859375 16.195312 C 89.597656 16.542969 89.300781 16.859375 88.972656 17.148438 C 88.648438 17.4375 88.292969 17.691406 87.917969 17.910156 C 87.539062 18.132812 87.144531 18.3125 86.730469 18.453125 C 86.320312 18.59375 85.894531 18.695312 85.464844 18.753906 C 85.03125 18.8125 84.597656 18.828125 84.160156 18.800781 C 83.722656 18.777344 83.296875 18.707031 82.871094 18.59375 C 82.449219 18.484375 82.042969 18.332031 81.652344 18.140625 C 81.257812 17.949219 80.886719 17.722656 80.539062 17.457031 C 80.191406 17.195312 79.875 16.898438 79.585938 16.570312 C 79.296875 16.242188 79.042969 15.890625 78.820312 15.515625 C 78.601562 15.136719 78.421875 14.742188 78.277344 14.332031 C 78.136719 13.917969 78.035156 13.496094 77.976562 13.0625 C 77.917969 12.628906 77.902344 12.195312 77.929688 11.761719 C 77.957031 11.324219 78.027344 10.898438 78.136719 10.472656 C 78.25 10.050781 78.398438 9.644531 78.589844 9.253906 C 78.78125 8.859375 79.011719 8.492188 79.273438 8.144531 C 79.539062 7.796875 79.835938 7.480469 80.164062 7.191406 C 80.488281 6.902344 80.84375 6.648438 81.21875 6.425781 C 81.597656 6.207031 81.992188 6.027344 82.40625 5.882812 C 82.816406 5.742188 83.242188 5.640625 83.671875 5.582031 C 84.105469 5.523438 84.539062 5.507812 84.976562 5.535156 C 85.410156 5.5625 85.839844 5.632812 86.261719 5.742188 C 86.6875 5.855469 87.09375 6.003906 87.484375 6.195312 C 87.878906 6.386719 88.246094 6.617188 88.59375 6.878906 C 88.941406 7.144531 89.261719 7.441406 89.550781 7.765625 C 89.839844 8.09375 90.09375 8.445312 90.3125 8.824219 C 90.535156 9.199219 90.714844 9.59375 90.855469 10.007812 C 91 10.421875 91.101562 10.84375 91.160156 11.277344 C 91.21875 11.707031 91.234375 12.140625 91.207031 12.578125 Z M 91.207031 12.578125"/></clipPath><clipPath id="bd"><path d="M 7 37 L 17 37 L 17 46 L 7 46 Z M 7 37"/></clipPath><clipPath id="be"><path d="M 7.316406 0.699219 L 137.324219 8.695312 L 130.570312 118.527344 L 0.5625 110.53125 Z M 7.316406 0.699219"/></clipPath><clipPath id="bf"><path d="M 7.316406 0.699219 L 137.324219 8.695312 L 130.570312 118.527344 L 0.5625 110.53125 Z M 7.316406 0.699219"/></clipPath><clipPath id="bg"><path d="M 16.230469 41.789062 C 16.210938 42.070312 16.167969 42.347656 16.097656 42.621094 C 16.023438 42.890625 15.925781 43.15625 15.800781 43.410156 C 15.679688 43.660156 15.53125 43.902344 15.359375 44.125 C 15.191406 44.347656 15 44.554688 14.789062 44.742188 C 14.574219 44.929688 14.347656 45.09375 14.105469 45.234375 C 13.859375 45.375 13.605469 45.492188 13.339844 45.585938 C 13.070312 45.675781 12.800781 45.742188 12.519531 45.777344 C 12.238281 45.816406 11.960938 45.828125 11.675781 45.808594 C 11.394531 45.792969 11.117188 45.75 10.847656 45.675781 C 10.574219 45.605469 10.308594 45.507812 10.054688 45.382812 C 9.804688 45.257812 9.5625 45.113281 9.339844 44.941406 C 9.113281 44.769531 8.910156 44.578125 8.722656 44.367188 C 8.535156 44.15625 8.371094 43.929688 8.230469 43.6875 C 8.085938 43.441406 7.96875 43.1875 7.878906 42.921875 C 7.785156 42.65625 7.722656 42.382812 7.683594 42.101562 C 7.644531 41.824219 7.636719 41.542969 7.652344 41.261719 C 7.671875 40.980469 7.714844 40.703125 7.785156 40.429688 C 7.859375 40.15625 7.957031 39.894531 8.078125 39.640625 C 8.203125 39.386719 8.351562 39.148438 8.523438 38.925781 C 8.691406 38.699219 8.882812 38.496094 9.09375 38.308594 C 9.304688 38.121094 9.535156 37.957031 9.777344 37.816406 C 10.023438 37.671875 10.277344 37.554688 10.542969 37.464844 C 10.808594 37.375 11.082031 37.308594 11.363281 37.269531 C 11.644531 37.234375 11.921875 37.222656 12.203125 37.238281 C 12.488281 37.257812 12.761719 37.300781 13.035156 37.375 C 13.308594 37.445312 13.574219 37.542969 13.824219 37.667969 C 14.078125 37.789062 14.320312 37.9375 14.542969 38.109375 C 14.765625 38.277344 14.972656 38.46875 15.160156 38.679688 C 15.347656 38.890625 15.511719 39.121094 15.652344 39.363281 C 15.796875 39.605469 15.914062 39.863281 16.003906 40.128906 C 16.097656 40.394531 16.160156 40.667969 16.199219 40.949219 C 16.238281 41.226562 16.246094 41.507812 16.230469 41.789062 Z M 16.230469 41.789062"/></clipPath><clipPath id="aN"><path d="M0 0H138V119H0z"/></clipPath><clipPath id="bi"><path d="M 629 26 L 749.285156 26 L 749.285156 196 L 629 196 Z M 629 26"/></clipPath><clipPath id="bl"><path d="M 31 22 L 120.285156 22 L 120.285156 146 L 31 146 Z M 31 22"/></clipPath><clipPath id="bm"><path d="M 164.996094 63.789062 L 90.953125 170.035156 L 0.671875 107.121094 L 74.71875 0.871094 Z M 164.996094 63.789062"/></clipPath><clipPath id="bn"><path d="M 164.996094 63.789062 L 90.953125 170.035156 L 0.671875 107.121094 L 74.71875 0.871094 Z M 164.996094 63.789062"/></clipPath><clipPath id="bo"><path d="M 96.945312 130.988281 C 100.304688 126.480469 102.429688 121.472656 103.4375 116.324219 C 104.300781 112.003906 108.214844 108.953125 112.65625 109.265625 C 121.558594 109.765625 130.539062 105.824219 135.992188 97.996094 C 139.539062 92.910156 141.035156 86.960938 140.667969 81.210938 C 140.039062 71.929688 134.375 63.703125 126.082031 59.347656 L 117.980469 55.132812 C 116.996094 54.589844 116.613281 53.390625 117.152344 52.414062 C 122.070312 43.5 119.589844 32.144531 111.003906 26.160156 C 103.667969 21.046875 94.050781 21.476562 87.34375 26.574219 C 86.683594 27.113281 85.734375 27.238281 84.957031 26.910156 C 73.347656 22.386719 59.820312 26.15625 52.429688 36.765625 C 46.808594 44.832031 46.132812 54.847656 49.773438 63.304688 C 52.320312 69.21875 50.699219 76.074219 45.578125 79.925781 C 42.605469 82.132812 39.949219 84.917969 37.707031 88.132812 C 26.332031 104.457031 30.269531 126.886719 46.410156 138.492188 C 62.484375 150.195312 85.140625 146.796875 96.945312 130.988281 Z M 96.945312 130.988281"/></clipPath><clipPath id="bq"><path d="M 27 64 L 41 64 L 41 78 L 27 78 Z M 27 64"/></clipPath><clipPath id="br"><path d="M 164.996094 63.789062 L 90.953125 170.035156 L 0.671875 107.121094 L 74.71875 0.871094 Z M 164.996094 63.789062"/></clipPath><clipPath id="bs"><path d="M 164.996094 63.789062 L 90.953125 170.035156 L 0.671875 107.121094 L 74.71875 0.871094 Z M 164.996094 63.789062"/></clipPath><clipPath id="bt"><path d="M 30.28125 76.46875 C 29.917969 76.214844 29.585938 75.933594 29.28125 75.613281 C 28.976562 75.296875 28.703125 74.953125 28.464844 74.585938 C 28.226562 74.214844 28.027344 73.824219 27.867188 73.414062 C 27.707031 73.007812 27.585938 72.585938 27.507812 72.15625 C 27.429688 71.722656 27.394531 71.285156 27.402344 70.847656 C 27.410156 70.410156 27.460938 69.976562 27.550781 69.546875 C 27.644531 69.121094 27.78125 68.703125 27.957031 68.304688 C 28.128906 67.902344 28.34375 67.519531 28.59375 67.160156 C 28.84375 66.800781 29.128906 66.46875 29.445312 66.167969 C 29.757812 65.863281 30.101562 65.59375 30.472656 65.359375 C 30.839844 65.121094 31.230469 64.925781 31.640625 64.765625 C 32.046875 64.609375 32.46875 64.488281 32.902344 64.414062 C 33.335938 64.335938 33.769531 64.304688 34.210938 64.3125 C 34.648438 64.324219 35.082031 64.375 35.511719 64.472656 C 35.941406 64.566406 36.359375 64.703125 36.761719 64.878906 C 37.164062 65.054688 37.546875 65.269531 37.910156 65.523438 C 38.269531 65.773438 38.601562 66.058594 38.910156 66.375 C 39.214844 66.691406 39.484375 67.035156 39.722656 67.40625 C 39.960938 67.773438 40.160156 68.164062 40.320312 68.574219 C 40.484375 68.984375 40.601562 69.402344 40.679688 69.835938 C 40.757812 70.265625 40.792969 70.703125 40.785156 71.140625 C 40.78125 71.578125 40.730469 72.011719 40.636719 72.441406 C 40.542969 72.871094 40.410156 73.285156 40.234375 73.6875 C 40.058594 74.089844 39.84375 74.46875 39.59375 74.828125 C 39.34375 75.1875 39.0625 75.519531 38.746094 75.820312 C 38.429688 76.125 38.085938 76.394531 37.714844 76.628906 C 37.347656 76.867188 36.957031 77.0625 36.550781 77.222656 C 36.140625 77.382812 35.71875 77.5 35.285156 77.574219 C 34.855469 77.652344 34.417969 77.683594 33.980469 77.675781 C 33.539062 77.664062 33.105469 77.613281 32.675781 77.519531 C 32.246094 77.421875 31.828125 77.289062 31.425781 77.109375 C 31.023438 76.933594 30.640625 76.71875 30.28125 76.46875 Z M 30.28125 76.46875"/></clipPath><clipPath id="bv"><path d="M 108 116 L 120.285156 116 L 120.285156 131 L 108 131 Z M 108 116"/></clipPath><clipPath id="bw"><path d="M 164.996094 63.789062 L 90.953125 170.035156 L 0.671875 107.121094 L 74.71875 0.871094 Z M 164.996094 63.789062"/></clipPath><clipPath id="bx"><path d="M 164.996094 63.789062 L 90.953125 170.035156 L 0.671875 107.121094 L 74.71875 0.871094 Z M 164.996094 63.789062"/></clipPath><clipPath id="by"><path d="M 111.484375 128.847656 C 111.125 128.597656 110.792969 128.316406 110.492188 128.003906 C 110.191406 127.6875 109.921875 127.347656 109.683594 126.980469 C 109.449219 126.613281 109.25 126.230469 109.089844 125.824219 C 108.929688 125.417969 108.8125 125 108.734375 124.574219 C 108.65625 124.144531 108.621094 123.714844 108.628906 123.277344 C 108.636719 122.84375 108.6875 122.414062 108.78125 121.988281 C 108.871094 121.566406 109.003906 121.152344 109.179688 120.753906 C 109.351562 120.359375 109.5625 119.980469 109.8125 119.625 C 110.058594 119.269531 110.339844 118.9375 110.652344 118.640625 C 110.96875 118.339844 111.308594 118.070312 111.671875 117.835938 C 112.039062 117.605469 112.425781 117.40625 112.832031 117.25 C 113.234375 117.09375 113.652344 116.976562 114.082031 116.902344 C 114.511719 116.824219 114.941406 116.792969 115.378906 116.800781 C 115.8125 116.8125 116.246094 116.863281 116.671875 116.957031 C 117.097656 117.050781 117.507812 117.1875 117.910156 117.363281 C 118.308594 117.535156 118.6875 117.75 119.042969 118 C 119.402344 118.25 119.734375 118.53125 120.035156 118.84375 C 120.339844 119.160156 120.609375 119.5 120.84375 119.867188 C 121.078125 120.234375 121.277344 120.617188 121.4375 121.023438 C 121.597656 121.429688 121.714844 121.847656 121.792969 122.273438 C 121.871094 122.703125 121.90625 123.132812 121.898438 123.570312 C 121.890625 124.003906 121.839844 124.433594 121.75 124.859375 C 121.65625 125.28125 121.523438 125.695312 121.347656 126.09375 C 121.175781 126.488281 120.964844 126.867188 120.714844 127.222656 C 120.46875 127.578125 120.1875 127.910156 119.875 128.207031 C 119.5625 128.507812 119.222656 128.777344 118.855469 129.011719 C 118.488281 129.242188 118.101562 129.441406 117.695312 129.597656 C 117.292969 129.753906 116.875 129.871094 116.445312 129.945312 C 116.015625 130.023438 115.585938 130.054688 115.148438 130.046875 C 114.714844 130.035156 114.285156 129.984375 113.859375 129.890625 C 113.433594 129.796875 113.019531 129.660156 112.621094 129.484375 C 112.21875 129.3125 111.839844 129.097656 111.484375 128.847656 Z M 111.484375 128.847656"/></clipPath><clipPath id="bk"><path d="M0 0H121V170H0z"/></clipPath><clipPath id="bA"><path d="M 0.714844 0 L 749.285156 0 L 749.285156 105 L 0.714844 105 Z M 0.714844 0"/></clipPath><clipPath id="bB"><path d="M 0.714844 157 L 749.285156 157 L 749.285156 227 L 0.714844 227 Z M 0.714844 157"/></clipPath><clipPath id="bE"><path d="M 0.714844 0.378906 L 749.285156 0.378906 L 749.285156 69.609375 L 0.714844 69.609375 Z M 0.714844 0.378906"/></clipPath><clipPath id="bD"><path d="M0 0H750V70H0z"/></clipPath><clipPath id="bF"><path d="M 0.714844 164 L 749.285156 164 L 749.285156 262 L 0.714844 262 Z M 0.714844 164"/></clipPath><linearGradient x1="-7.093" gradientTransform="matrix(.58747 .03613 -.0361 .58702 7.146 .11)" xmlns:xlink="http://www.w3.org/1999/xlink" y1="95.1" x2="228.411" gradientUnits="userSpaceOnUse" y2="95.1" xlink:type="simple" xlink:actuate="onLoad" id="i" xlink:show="other"><stop stop-color="#FE6551" offset="0"/><stop stop-color="#FE6551" offset=".031"/><stop stop-color="#FE6551" offset=".047"/><stop stop-color="#FE6651" offset=".063"/><stop stop-color="#FE6751" offset=".078"/><stop stop-color="#FE6851" offset=".094"/><stop stop-color="#FE6851" offset=".109"/><stop stop-color="#FE6951" offset=".125"/><stop stop-color="#FE6A51" offset=".141"/><stop stop-color="#FE6B51" offset=".156"/><stop stop-color="#FE6B51" offset=".172"/><stop stop-color="#FE6C50" offset=".188"/><stop stop-color="#FE6D50" offset=".203"/><stop stop-color="#FE6D50" offset=".219"/><stop stop-color="#FE6E50" offset=".234"/><stop stop-color="#FE6F50" offset=".25"/><stop stop-color="#FE7050" offset=".266"/><stop stop-color="#FE7050" offset=".281"/><stop stop-color="#FE7150" offset=".297"/><stop stop-color="#FE7250" offset=".313"/><stop stop-color="#FE7350" offset=".328"/><stop stop-color="#FE7350" offset=".344"/><stop stop-color="#FE7450" offset=".359"/><stop stop-color="#FE7550" offset=".375"/><stop stop-color="#FE7650" offset=".391"/><stop stop-color="#FE764F" offset=".406"/><stop stop-color="#FE774F" offset=".422"/><stop stop-color="#FE784F" offset=".438"/><stop stop-color="#FE794F" offset=".453"/><stop stop-color="#FE794F" offset=".469"/><stop stop-color="#FE7A4F" offset=".484"/><stop stop-color="#FE7B4F" offset=".5"/><stop stop-color="#FE7B4F" offset=".516"/><stop stop-color="#FF7C4F" offset=".531"/><stop stop-color="#FF7D4F" offset=".547"/><stop stop-color="#FF7E4F" offset=".563"/><stop stop-color="#FF7E4F" offset=".578"/><stop stop-color="#FF7F4F" offset=".594"/><stop stop-color="#FF804F" offset=".609"/><stop stop-color="#FF814F" offset=".625"/><stop stop-color="#FF814E" offset=".641"/><stop stop-color="#FF824E" offset=".656"/><stop stop-color="#FF834E" offset=".672"/><stop stop-color="#FF844E" offset=".688"/><stop stop-color="#FF844E" offset=".703"/><stop stop-color="#FF854E" offset=".719"/><stop stop-color="#FF864E" offset=".734"/><stop stop-color="#FF864E" offset=".75"/><stop stop-color="#FF874E" offset=".766"/><stop stop-color="#FF884E" offset=".781"/><stop stop-color="#FF894E" offset=".797"/><stop stop-color="#FF894E" offset=".813"/><stop stop-color="#FF8A4E" offset=".828"/><stop stop-color="#FF8B4E" offset=".844"/><stop stop-color="#FF8C4E" offset=".859"/><stop stop-color="#FF8C4D" offset=".875"/><stop stop-color="#FF8D4D" offset=".891"/><stop stop-color="#FF8E4D" offset=".906"/><stop stop-color="#FF8F4D" offset=".922"/><stop stop-color="#FF8F4D" offset=".938"/><stop stop-color="#FF904D" offset=".953"/><stop stop-color="#FF914D" offset=".969"/><stop stop-color="#FF914D" offset="1"/></linearGradient><linearGradient x1="125.896" gradientTransform="matrix(.58747 .03613 -.0361 .58702 7.146 .11)" xmlns:xlink="http://www.w3.org/1999/xlink" y1="95.1" x2="150.104" gradientUnits="userSpaceOnUse" y2="95.1" xlink:type="simple" xlink:actuate="onLoad" id="n" xlink:show="other"><stop stop-color="#FF7E4F" offset="0"/><stop stop-color="#FF7E4F" offset=".125"/><stop stop-color="#FF7F4F" offset=".25"/><stop stop-color="#FF804F" offset=".375"/><stop stop-color="#FF804F" offset=".5"/><stop stop-color="#FF814F" offset=".625"/><stop stop-color="#FF814E" offset=".75"/><stop stop-color="#FF824E" offset=".875"/><stop stop-color="#FF834E" offset="1"/></linearGradient><linearGradient x1="120.203" gradientTransform="matrix(.58747 .03613 -.0361 .58702 7.146 .11)" xmlns:xlink="http://www.w3.org/1999/xlink" y1="95.1" x2="144.197" gradientUnits="userSpaceOnUse" y2="95.1" xlink:type="simple" xlink:actuate="onLoad" id="s" xlink:show="other"><stop stop-color="#FF7D4F" offset="0"/><stop stop-color="#FF7D4F" offset=".125"/><stop stop-color="#FF7E4F" offset=".25"/><stop stop-color="#FF7E4F" offset=".375"/><stop stop-color="#FF7F4F" offset=".5"/><stop stop-color="#FF804F" offset=".625"/><stop stop-color="#FF804F" offset=".75"/><stop stop-color="#FF814F" offset=".875"/><stop stop-color="#FF814E" offset="1"/></linearGradient><linearGradient x1="4.349" gradientTransform="matrix(.58747 .03613 -.0361 .58702 7.146 .11)" xmlns:xlink="http://www.w3.org/1999/xlink" y1="95.1" x2="19.851" gradientUnits="userSpaceOnUse" y2="95.1" xlink:type="simple" xlink:actuate="onLoad" id="x" xlink:show="other"><stop stop-color="#FE6651" offset="0"/><stop stop-color="#FE6651" offset=".25"/><stop stop-color="#FE6751" offset=".5"/><stop stop-color="#FE6851" offset=".75"/><stop stop-color="#FE6951" offset="1"/></linearGradient><linearGradient x1="-36.507" gradientTransform="matrix(-.33458 .48011 -.48252 -.33626 164.781 64.103)" xmlns:xlink="http://www.w3.org/1999/xlink" y1="95.1" x2="256.624" gradientUnits="userSpaceOnUse" y2="95.1" xlink:type="simple" xlink:actuate="onLoad" id="E" xlink:show="other"><stop stop-color="#FE6551" offset="0"/><stop stop-color="#FE6551" offset=".125"/><stop stop-color="#FE6551" offset=".141"/><stop stop-color="#FE6651" offset=".156"/><stop stop-color="#FE6751" offset=".172"/><stop stop-color="#FE6851" offset=".188"/><stop stop-color="#FE6951" offset=".203"/><stop stop-color="#FE6A51" offset=".219"/><stop stop-color="#FE6B51" offset=".234"/><stop stop-color="#FE6C50" offset=".25"/><stop stop-color="#FE6D50" offset=".266"/><stop stop-color="#FE6E50" offset=".281"/><stop stop-color="#FE6F50" offset=".297"/><stop stop-color="#FE7050" offset=".313"/><stop stop-color="#FE7050" offset=".328"/><stop stop-color="#FE7150" offset=".344"/><stop stop-color="#FE7250" offset=".359"/><stop stop-color="#FE7350" offset=".375"/><stop stop-color="#FE7450" offset=".391"/><stop stop-color="#FE7550" offset=".406"/><stop stop-color="#FE7650" offset=".422"/><stop stop-color="#FE774F" offset=".438"/><stop stop-color="#FE784F" offset=".453"/><stop stop-color="#FE794F" offset=".469"/><stop stop-color="#FE7A4F" offset=".484"/><stop stop-color="#FE7B4F" offset=".5"/><stop stop-color="#FE7B4F" offset=".516"/><stop stop-color="#FF7C4F" offset=".531"/><stop stop-color="#FF7D4F" offset=".547"/><stop stop-color="#FF7E4F" offset=".563"/><stop stop-color="#FF7F4F" offset=".578"/><stop stop-color="#FF804F" offset=".594"/><stop stop-color="#FF814F" offset=".609"/><stop stop-color="#FF824E" offset=".625"/><stop stop-color="#FF834E" offset=".641"/><stop stop-color="#FF844E" offset=".656"/><stop stop-color="#FF854E" offset=".672"/><stop stop-color="#FF854E" offset=".688"/><stop stop-color="#FF864E" offset=".703"/><stop stop-color="#FF874E" offset=".719"/><stop stop-color="#FF884E" offset=".734"/><stop stop-color="#FF894E" offset=".75"/><stop stop-color="#FF8A4E" offset=".766"/><stop stop-color="#FF8B4E" offset=".781"/><stop stop-color="#FF8C4D" offset=".797"/><stop stop-color="#FF8D4D" offset=".813"/><stop stop-color="#FF8E4D" offset=".828"/><stop stop-color="#FF8F4D" offset=".844"/><stop stop-color="#FF904D" offset=".859"/><stop stop-color="#FF904D" offset=".875"/><stop stop-color="#FF914D" offset="1"/></linearGradient><linearGradient x1="122.074" gradientTransform="matrix(-.33458 .48011 -.48252 -.33626 164.781 64.103)" xmlns:xlink="http://www.w3.org/1999/xlink" y1="95.1" x2="153.926" gradientUnits="userSpaceOnUse" y2="95.1" xlink:type="simple" xlink:actuate="onLoad" id="J" xlink:show="other"><stop stop-color="#FF7D4F" offset="0"/><stop stop-color="#FF7E4F" offset=".125"/><stop stop-color="#FF7F4F" offset=".25"/><stop stop-color="#FF7F4F" offset=".375"/><stop stop-color="#FF804F" offset=".5"/><stop stop-color="#FF814F" offset=".625"/><stop stop-color="#FF824E" offset=".75"/><stop stop-color="#FF834E" offset=".875"/><stop stop-color="#FF834E" offset="1"/></linearGradient><linearGradient x1="116.414" gradientTransform="matrix(-.33458 .48011 -.48252 -.33626 164.781 64.103)" xmlns:xlink="http://www.w3.org/1999/xlink" y1="95.1" x2="147.986" gradientUnits="userSpaceOnUse" y2="95.1" xlink:type="simple" xlink:actuate="onLoad" id="O" xlink:show="other"><stop stop-color="#FF7C4F" offset="0"/><stop stop-color="#FF7D4F" offset=".125"/><stop stop-color="#FF7D4F" offset=".25"/><stop stop-color="#FF7E4F" offset=".375"/><stop stop-color="#FF7F4F" offset=".5"/><stop stop-color="#FF804F" offset=".625"/><stop stop-color="#FF814F" offset=".75"/><stop stop-color="#FF814E" offset=".875"/><stop stop-color="#FF824E" offset="1"/></linearGradient><linearGradient x1="1.902" gradientTransform="matrix(-.33458 .48011 -.48252 -.33626 164.781 64.103)" xmlns:xlink="http://www.w3.org/1999/xlink" y1="95.1" x2="22.298" gradientUnits="userSpaceOnUse" y2="95.1" xlink:type="simple" xlink:actuate="onLoad" id="T" xlink:show="other"><stop stop-color="#FE6551" offset="0"/><stop stop-color="#FE6651" offset=".125"/><stop stop-color="#FE6651" offset=".25"/><stop stop-color="#FE6751" offset=".375"/><stop stop-color="#FE6751" offset=".5"/><stop stop-color="#FE6851" offset=".625"/><stop stop-color="#FE6851" offset=".75"/><stop stop-color="#FE6951" offset=".875"/><stop stop-color="#FE6951" offset="1"/></linearGradient><linearGradient x1="36.52" gradientTransform="matrix(.58747 .03613 -.0361 .58702 -20.42 .392)" xmlns:xlink="http://www.w3.org/1999/xlink" y1="95.1" x2="228.411" gradientUnits="userSpaceOnUse" y2="95.1" xlink:type="simple" xlink:actuate="onLoad" id="af" xlink:show="other"><stop stop-color="#FE6C50" offset="0"/><stop stop-color="#FE6D50" offset=".016"/><stop stop-color="#FE6D50" offset=".031"/><stop stop-color="#FE6E50" offset=".047"/><stop stop-color="#FE6E50" offset=".063"/><stop stop-color="#FE6F50" offset=".078"/><stop stop-color="#FE7050" offset=".094"/><stop stop-color="#FE7050" offset=".109"/><stop stop-color="#FE7150" offset=".125"/><stop stop-color="#FE7150" offset=".141"/><stop stop-color="#FE7250" offset=".156"/><stop stop-color="#FE7350" offset=".172"/><stop stop-color="#FE7350" offset=".188"/><stop stop-color="#FE7450" offset=".203"/><stop stop-color="#FE7450" offset=".219"/><stop stop-color="#FE7550" offset=".234"/><stop stop-color="#FE7650" offset=".25"/><stop stop-color="#FE764F" offset=".266"/><stop stop-color="#FE774F" offset=".281"/><stop stop-color="#FE774F" offset=".297"/><stop stop-color="#FE784F" offset=".313"/><stop stop-color="#FE794F" offset=".328"/><stop stop-color="#FE794F" offset=".344"/><stop stop-color="#FE7A4F" offset=".359"/><stop stop-color="#FE7A4F" offset=".375"/><stop stop-color="#FE7B4F" offset=".391"/><stop stop-color="#FE7C4F" offset=".406"/><stop stop-color="#FF7C4F" offset=".422"/><stop stop-color="#FF7D4F" offset=".438"/><stop stop-color="#FF7D4F" offset=".453"/><stop stop-color="#FF7E4F" offset=".469"/><stop stop-color="#FF7F4F" offset=".484"/><stop stop-color="#FF7F4F" offset=".5"/><stop stop-color="#FF804F" offset=".516"/><stop stop-color="#FF804F" offset=".531"/><stop stop-color="#FF814F" offset=".547"/><stop stop-color="#FF824E" offset=".563"/><stop stop-color="#FF824E" offset=".578"/><stop stop-color="#FF834E" offset=".594"/><stop stop-color="#FF834E" offset=".609"/><stop stop-color="#FF844E" offset=".625"/><stop stop-color="#FF854E" offset=".641"/><stop stop-color="#FF854E" offset=".656"/><stop stop-color="#FF864E" offset=".672"/><stop stop-color="#FF864E" offset=".688"/><stop stop-color="#FF874E" offset=".703"/><stop stop-color="#FF884E" offset=".719"/><stop stop-color="#FF884E" offset=".734"/><stop stop-color="#FF894E" offset=".75"/><stop stop-color="#FF894E" offset=".766"/><stop stop-color="#FF8A4E" offset=".781"/><stop stop-color="#FF8B4E" offset=".797"/><stop stop-color="#FF8B4E" offset=".813"/><stop stop-color="#FF8C4E" offset=".828"/><stop stop-color="#FF8C4D" offset=".844"/><stop stop-color="#FF8D4D" offset=".859"/><stop stop-color="#FF8E4D" offset=".875"/><stop stop-color="#FF8E4D" offset=".891"/><stop stop-color="#FF8F4D" offset=".906"/><stop stop-color="#FF8F4D" offset=".922"/><stop stop-color="#FF904D" offset=".938"/><stop stop-color="#FF914D" offset="1"/></linearGradient><linearGradient x1="125.896" gradientTransform="matrix(.58747 .03613 -.0361 .58702 -20.42 .392)" xmlns:xlink="http://www.w3.org/1999/xlink" y1="95.1" x2="150.104" gradientUnits="userSpaceOnUse" y2="95.1" xlink:type="simple" xlink:actuate="onLoad" id="ak" xlink:show="other"><stop stop-color="#FF7E4F" offset="0"/><stop stop-color="#FF7E4F" offset=".125"/><stop stop-color="#FF7F4F" offset=".25"/><stop stop-color="#FF804F" offset=".375"/><stop stop-color="#FF804F" offset=".5"/><stop stop-color="#FF814F" offset=".625"/><stop stop-color="#FF814E" offset=".75"/><stop stop-color="#FF824E" offset=".875"/><stop stop-color="#FF834E" offset="1"/></linearGradient><linearGradient x1="120.203" gradientTransform="matrix(.58747 .03613 -.0361 .58702 -20.42 .392)" xmlns:xlink="http://www.w3.org/1999/xlink" y1="95.1" x2="144.197" gradientUnits="userSpaceOnUse" y2="95.1" xlink:type="simple" xlink:actuate="onLoad" id="ap" xlink:show="other"><stop stop-color="#FF7D4F" offset="0"/><stop stop-color="#FF7D4F" offset=".125"/><stop stop-color="#FF7E4F" offset=".25"/><stop stop-color="#FF7E4F" offset=".375"/><stop stop-color="#FF7F4F" offset=".5"/><stop stop-color="#FF804F" offset=".625"/><stop stop-color="#FF804F" offset=".75"/><stop stop-color="#FF814F" offset=".875"/><stop stop-color="#FF814E" offset="1"/></linearGradient><linearGradient x1="-36.507" gradientTransform="matrix(-.33458 .48011 -.48252 -.33626 164.215 63.386)" xmlns:xlink="http://www.w3.org/1999/xlink" y1="95.1" x2="256.624" gradientUnits="userSpaceOnUse" y2="95.1" xlink:type="simple" xlink:actuate="onLoad" id="aw" xlink:show="other"><stop stop-color="#FE6551" offset="0"/><stop stop-color="#FE6551" offset=".125"/><stop stop-color="#FE6551" offset=".141"/><stop stop-color="#FE6651" offset=".156"/><stop stop-color="#FE6751" offset=".172"/><stop stop-color="#FE6851" offset=".188"/><stop stop-color="#FE6951" offset=".203"/><stop stop-color="#FE6A51" offset=".219"/><stop stop-color="#FE6B51" offset=".234"/><stop stop-color="#FE6C50" offset=".25"/><stop stop-color="#FE6D50" offset=".266"/><stop stop-color="#FE6E50" offset=".281"/><stop stop-color="#FE6F50" offset=".297"/><stop stop-color="#FE7050" offset=".313"/><stop stop-color="#FE7050" offset=".328"/><stop stop-color="#FE7150" offset=".344"/><stop stop-color="#FE7250" offset=".359"/><stop stop-color="#FE7350" offset=".375"/><stop stop-color="#FE7450" offset=".391"/><stop stop-color="#FE7550" offset=".406"/><stop stop-color="#FE7650" offset=".422"/><stop stop-color="#FE774F" offset=".438"/><stop stop-color="#FE784F" offset=".453"/><stop stop-color="#FE794F" offset=".469"/><stop stop-color="#FE7A4F" offset=".484"/><stop stop-color="#FE7B4F" offset=".5"/><stop stop-color="#FE7B4F" offset=".516"/><stop stop-color="#FF7C4F" offset=".531"/><stop stop-color="#FF7D4F" offset=".547"/><stop stop-color="#FF7E4F" offset=".563"/><stop stop-color="#FF7F4F" offset=".578"/><stop stop-color="#FF804F" offset=".594"/><stop stop-color="#FF814F" offset=".609"/><stop stop-color="#FF824E" offset=".625"/><stop stop-color="#FF834E" offset=".641"/><stop stop-color="#FF844E" offset=".656"/><stop stop-color="#FF854E" offset=".672"/><stop stop-color="#FF854E" offset=".688"/><stop stop-color="#FF864E" offset=".703"/><stop stop-color="#FF874E" offset=".719"/><stop stop-color="#FF884E" offset=".734"/><stop stop-color="#FF894E" offset=".75"/><stop stop-color="#FF8A4E" offset=".766"/><stop stop-color="#FF8B4E" offset=".781"/><stop stop-color="#FF8C4D" offset=".797"/><stop stop-color="#FF8D4D" offset=".813"/><stop stop-color="#FF8E4D" offset=".828"/><stop stop-color="#FF8F4D" offset=".844"/><stop stop-color="#FF904D" offset=".859"/><stop stop-color="#FF904D" offset=".875"/><stop stop-color="#FF914D" offset="1"/></linearGradient><linearGradient x1="122.074" gradientTransform="matrix(-.33458 .48011 -.48252 -.33626 164.215 63.386)" xmlns:xlink="http://www.w3.org/1999/xlink" y1="95.1" x2="153.926" gradientUnits="userSpaceOnUse" y2="95.1" xlink:type="simple" xlink:actuate="onLoad" id="aB" xlink:show="other"><stop stop-color="#FF7D4F" offset="0"/><stop stop-color="#FF7E4F" offset=".125"/><stop stop-color="#FF7F4F" offset=".25"/><stop stop-color="#FF7F4F" offset=".375"/><stop stop-color="#FF804F" offset=".5"/><stop stop-color="#FF814F" offset=".625"/><stop stop-color="#FF824E" offset=".75"/><stop stop-color="#FF834E" offset=".875"/><stop stop-color="#FF834E" offset="1"/></linearGradient><linearGradient x1="116.414" gradientTransform="matrix(-.33458 .48011 -.48252 -.33626 164.215 63.386)" xmlns:xlink="http://www.w3.org/1999/xlink" y1="95.1" x2="147.986" gradientUnits="userSpaceOnUse" y2="95.1" xlink:type="simple" xlink:actuate="onLoad" id="aG" xlink:show="other"><stop stop-color="#FF7C4F" offset="0"/><stop stop-color="#FF7D4F" offset=".125"/><stop stop-color="#FF7D4F" offset=".25"/><stop stop-color="#FF7E4F" offset=".375"/><stop stop-color="#FF7F4F" offset=".5"/><stop stop-color="#FF804F" offset=".625"/><stop stop-color="#FF814F" offset=".75"/><stop stop-color="#FF814E" offset=".875"/><stop stop-color="#FF824E" offset="1"/></linearGradient><linearGradient x1="1.902" gradientTransform="matrix(-.33458 .48011 -.48252 -.33626 164.215 63.386)" xmlns:xlink="http://www.w3.org/1999/xlink" y1="95.1" x2="22.298" gradientUnits="userSpaceOnUse" y2="95.1" xlink:type="simple" xlink:actuate="onLoad" id="aL" xlink:show="other"><stop stop-color="#FE6551" offset="0"/><stop stop-color="#FE6651" offset=".125"/><stop stop-color="#FE6651" offset=".25"/><stop stop-color="#FE6751" offset=".375"/><stop stop-color="#FE6751" offset=".5"/><stop stop-color="#FE6851" offset=".625"/><stop stop-color="#FE6851" offset=".75"/><stop stop-color="#FE6951" offset=".875"/><stop stop-color="#FE6951" offset="1"/></linearGradient><linearGradient x1="-7.093" gradientTransform="matrix(.58747 .03613 -.0361 .58702 7.313 .76)" xmlns:xlink="http://www.w3.org/1999/xlink" y1="95.1" x2="228.411" gradientUnits="userSpaceOnUse" y2="95.1" xlink:type="simple" xlink:actuate="onLoad" id="aS" xlink:show="other"><stop stop-color="#FE6551" offset="0"/><stop stop-color="#FE6551" offset=".031"/><stop stop-color="#FE6551" offset=".047"/><stop stop-color="#FE6651" offset=".063"/><stop stop-color="#FE6751" offset=".078"/><stop stop-color="#FE6851" offset=".094"/><stop stop-color="#FE6851" offset=".109"/><stop stop-color="#FE6951" offset=".125"/><stop stop-color="#FE6A51" offset=".141"/><stop stop-color="#FE6B51" offset=".156"/><stop stop-color="#FE6B51" offset=".172"/><stop stop-color="#FE6C50" offset=".188"/><stop stop-color="#FE6D50" offset=".203"/><stop stop-color="#FE6D50" offset=".219"/><stop stop-color="#FE6E50" offset=".234"/><stop stop-color="#FE6F50" offset=".25"/><stop stop-color="#FE7050" offset=".266"/><stop stop-color="#FE7050" offset=".281"/><stop stop-color="#FE7150" offset=".297"/><stop stop-color="#FE7250" offset=".313"/><stop stop-color="#FE7350" offset=".328"/><stop stop-color="#FE7350" offset=".344"/><stop stop-color="#FE7450" offset=".359"/><stop stop-color="#FE7550" offset=".375"/><stop stop-color="#FE7650" offset=".391"/><stop stop-color="#FE764F" offset=".406"/><stop stop-color="#FE774F" offset=".422"/><stop stop-color="#FE784F" offset=".438"/><stop stop-color="#FE794F" offset=".453"/><stop stop-color="#FE794F" offset=".469"/><stop stop-color="#FE7A4F" offset=".484"/><stop stop-color="#FE7B4F" offset=".5"/><stop stop-color="#FE7B4F" offset=".516"/><stop stop-color="#FF7C4F" offset=".531"/><stop stop-color="#FF7D4F" offset=".547"/><stop stop-color="#FF7E4F" offset=".563"/><stop stop-color="#FF7E4F" offset=".578"/><stop stop-color="#FF7F4F" offset=".594"/><stop stop-color="#FF804F" offset=".609"/><stop stop-color="#FF814F" offset=".625"/><stop stop-color="#FF814E" offset=".641"/><stop stop-color="#FF824E" offset=".656"/><stop stop-color="#FF834E" offset=".672"/><stop stop-color="#FF844E" offset=".688"/><stop stop-color="#FF844E" offset=".703"/><stop stop-color="#FF854E" offset=".719"/><stop stop-color="#FF864E" offset=".734"/><stop stop-color="#FF864E" offset=".75"/><stop stop-color="#FF874E" offset=".766"/><stop stop-color="#FF884E" offset=".781"/><stop stop-color="#FF894E" offset=".797"/><stop stop-color="#FF894E" offset=".813"/><stop stop-color="#FF8A4E" offset=".828"/><stop stop-color="#FF8B4E" offset=".844"/><stop stop-color="#FF8C4E" offset=".859"/><stop stop-color="#FF8C4D" offset=".875"/><stop stop-color="#FF8D4D" offset=".891"/><stop stop-color="#FF8E4D" offset=".906"/><stop stop-color="#FF8F4D" offset=".922"/><stop stop-color="#FF8F4D" offset=".938"/><stop stop-color="#FF904D" offset=".953"/><stop stop-color="#FF914D" offset=".969"/><stop stop-color="#FF914D" offset="1"/></linearGradient><linearGradient x1="125.896" gradientTransform="matrix(.58747 .03613 -.0361 .58702 7.313 .76)" xmlns:xlink="http://www.w3.org/1999/xlink" y1="95.1" x2="150.104" gradientUnits="userSpaceOnUse" y2="95.1" xlink:type="simple" xlink:actuate="onLoad" id="aX" xlink:show="other"><stop stop-color="#FF7E4F" offset="0"/><stop stop-color="#FF7E4F" offset=".125"/><stop stop-color="#FF7F4F" offset=".25"/><stop stop-color="#FF804F" offset=".375"/><stop stop-color="#FF804F" offset=".5"/><stop stop-color="#FF814F" offset=".625"/><stop stop-color="#FF814E" offset=".75"/><stop stop-color="#FF824E" offset=".875"/><stop stop-color="#FF834E" offset="1"/></linearGradient><linearGradient x1="120.203" gradientTransform="matrix(.58747 .03613 -.0361 .58702 7.313 .76)" xmlns:xlink="http://www.w3.org/1999/xlink" y1="95.1" x2="144.197" gradientUnits="userSpaceOnUse" y2="95.1" xlink:type="simple" xlink:actuate="onLoad" id="bc" xlink:show="other"><stop stop-color="#FF7D4F" offset="0"/><stop stop-color="#FF7D4F" offset=".125"/><stop stop-color="#FF7E4F" offset=".25"/><stop stop-color="#FF7E4F" offset=".375"/><stop stop-color="#FF7F4F" offset=".5"/><stop stop-color="#FF804F" offset=".625"/><stop stop-color="#FF804F" offset=".75"/><stop stop-color="#FF814F" offset=".875"/><stop stop-color="#FF814E" offset="1"/></linearGradient><linearGradient x1="4.349" gradientTransform="matrix(.58747 .03613 -.0361 .58702 7.313 .76)" xmlns:xlink="http://www.w3.org/1999/xlink" y1="95.1" x2="19.851" gradientUnits="userSpaceOnUse" y2="95.1" xlink:type="simple" xlink:actuate="onLoad" id="bh" xlink:show="other"><stop stop-color="#FE6651" offset="0"/><stop stop-color="#FE6651" offset=".25"/><stop stop-color="#FE6751" offset=".5"/><stop stop-color="#FE6851" offset=".75"/><stop stop-color="#FE6951" offset="1"/></linearGradient><linearGradient x1="-16.236" gradientTransform="matrix(-.33458 .48011 -.48252 -.33626 164.948 63.753)" xmlns:xlink="http://www.w3.org/1999/xlink" y1="95.1" x2="256.624" gradientUnits="userSpaceOnUse" y2="95.1" xlink:type="simple" xlink:actuate="onLoad" id="bp" xlink:show="other"><stop stop-color="#FE6551" offset="0"/><stop stop-color="#FE6551" offset=".063"/><stop stop-color="#FE6651" offset=".078"/><stop stop-color="#FE6651" offset=".094"/><stop stop-color="#FE6751" offset=".109"/><stop stop-color="#FE6851" offset=".125"/><stop stop-color="#FE6951" offset=".141"/><stop stop-color="#FE6A51" offset=".156"/><stop stop-color="#FE6B51" offset=".172"/><stop stop-color="#FE6C50" offset=".188"/><stop stop-color="#FE6C50" offset=".203"/><stop stop-color="#FE6D50" offset=".219"/><stop stop-color="#FE6E50" offset=".234"/><stop stop-color="#FE6F50" offset=".25"/><stop stop-color="#FE7050" offset=".266"/><stop stop-color="#FE7150" offset=".281"/><stop stop-color="#FE7150" offset=".297"/><stop stop-color="#FE7250" offset=".313"/><stop stop-color="#FE7350" offset=".328"/><stop stop-color="#FE7450" offset=".344"/><stop stop-color="#FE7550" offset=".359"/><stop stop-color="#FE7650" offset=".375"/><stop stop-color="#FE774F" offset=".391"/><stop stop-color="#FE774F" offset=".406"/><stop stop-color="#FE784F" offset=".422"/><stop stop-color="#FE794F" offset=".438"/><stop stop-color="#FE7A4F" offset=".453"/><stop stop-color="#FE7B4F" offset=".469"/><stop stop-color="#FF7C4F" offset=".484"/><stop stop-color="#FF7D4F" offset=".5"/><stop stop-color="#FF7D4F" offset=".516"/><stop stop-color="#FF7E4F" offset=".531"/><stop stop-color="#FF7F4F" offset=".547"/><stop stop-color="#FF804F" offset=".563"/><stop stop-color="#FF814F" offset=".578"/><stop stop-color="#FF824E" offset=".594"/><stop stop-color="#FF834E" offset=".609"/><stop stop-color="#FF834E" offset=".625"/><stop stop-color="#FF844E" offset=".641"/><stop stop-color="#FF854E" offset=".656"/><stop stop-color="#FF864E" offset=".672"/><stop stop-color="#FF874E" offset=".688"/><stop stop-color="#FF884E" offset=".703"/><stop stop-color="#FF884E" offset=".719"/><stop stop-color="#FF894E" offset=".734"/><stop stop-color="#FF8A4E" offset=".75"/><stop stop-color="#FF8B4E" offset=".766"/><stop stop-color="#FF8C4D" offset=".781"/><stop stop-color="#FF8D4D" offset=".797"/><stop stop-color="#FF8E4D" offset=".813"/><stop stop-color="#FF8E4D" offset=".828"/><stop stop-color="#FF8F4D" offset=".844"/><stop stop-color="#FF904D" offset=".859"/><stop stop-color="#FF914D" offset=".875"/><stop stop-color="#FF914D" offset="1"/></linearGradient><linearGradient x1="122.074" gradientTransform="matrix(-.33458 .48011 -.48252 -.33626 164.948 63.753)" xmlns:xlink="http://www.w3.org/1999/xlink" y1="95.1" x2="153.926" gradientUnits="userSpaceOnUse" y2="95.1" xlink:type="simple" xlink:actuate="onLoad" id="bu" xlink:show="other"><stop stop-color="#FF7D4F" offset="0"/><stop stop-color="#FF7E4F" offset=".125"/><stop stop-color="#FF7F4F" offset=".25"/><stop stop-color="#FF7F4F" offset=".375"/><stop stop-color="#FF804F" offset=".5"/><stop stop-color="#FF814F" offset=".625"/><stop stop-color="#FF824E" offset=".75"/><stop stop-color="#FF834E" offset=".875"/><stop stop-color="#FF834E" offset="1"/></linearGradient><linearGradient x1="117.995" gradientTransform="matrix(-.33458 .48011 -.48252 -.33626 164.948 63.753)" xmlns:xlink="http://www.w3.org/1999/xlink" y1="95.1" x2="147.986" gradientUnits="userSpaceOnUse" y2="95.1" xlink:type="simple" xlink:actuate="onLoad" id="bz" xlink:show="other"><stop stop-color="#FF7D4F" offset="0"/><stop stop-color="#FF7D4F" offset=".125"/><stop stop-color="#FF7E4F" offset=".25"/><stop stop-color="#FF7E4F" offset=".375"/><stop stop-color="#FF7F4F" offset=".5"/><stop stop-color="#FF804F" offset=".625"/><stop stop-color="#FF814F" offset=".75"/><stop stop-color="#FF814E" offset=".875"/><stop stop-color="#FF824E" offset="1"/></linearGradient><mask id="c"><g filter="url(#a)"><path fill-opacity=".176" d="M-75 -26.25H825V288.75H-75z"/></g></mask><mask id="y"><g filter="url(#a)"><path fill-opacity=".176" d="M-75 -26.25H825V288.75H-75z"/></g></mask><mask id="V"><g filter="url(#a)"><path fill-opacity=".047" d="M-75 -26.25H825V288.75H-75z"/></g></mask><mask id="Z"><g filter="url(#a)"><path fill-opacity=".176" d="M-75 -26.25H825V288.75H-75z"/></g></mask><mask id="aq"><g filter="url(#a)"><path fill-opacity=".176" d="M-75 -26.25H825V288.75H-75z"/></g></mask><mask id="aM"><g filter="url(#a)"><path fill-opacity=".176" d="M-75 -26.25H825V288.75H-75z"/></g></mask><mask id="bj"><g filter="url(#a)"><path fill-opacity=".176" d="M-75 -26.25H825V288.75H-75z"/></g></mask><mask id="bC"><g filter="url(#a)"><path fill-opacity=".047" d="M-75 -26.25H825V288.75H-75z"/></g></mask><filter x="0%" y="0%" width="100%" xmlns:xlink="http://www.w3.org/1999/xlink" xlink:type="simple" xlink:actuate="onLoad" height="100%" id="a" xlink:show="other"><feColorMatrix values="0 0 0 0 1 0 0 0 0 1 0 0 0 0 1 0 0 0 1 0" color-interpolation-filters="sRGB"/></filter></defs><g clip-path="url(#b)"><path fill="#FFF" d="M 0.714844 0 L 749.285156 0 L 749.285156 269.488281 L 0.714844 269.488281 Z M 0.714844 0"/><path fill="#FFF" d="M 0.714844 0 L 749.285156 0 L 749.285156 262 L 0.714844 262 Z M 0.714844 0"/><path fill="#FFE551" d="M 0.714844 0 L 749.285156 0 L 749.285156 262 L 0.714844 262 Z M 0.714844 0"/></g><g mask="url(#c)"><g><g clip-path="url(#d)" transform="translate(241 72)"><g clip-path="url(#e)"><g clip-path="url(#f)"><g clip-path="url(#g)"><g clip-path="url(#h)"><path fill="url(#i)" d="M 3.058594 -1.464844 L -3.824219 110.472656 L 134.527344 118.980469 L 141.410156 7.042969 Z M 3.058594 -1.464844"/></g></g></g></g><g clip-path="url(#j)"><g clip-path="url(#k)"><g clip-path="url(#l)"><g clip-path="url(#m)"><path fill="url(#n)" d="M 75.207031 100.574219 L 74.332031 114.785156 L 88.554688 115.660156 L 89.429688 101.449219 Z M 75.207031 100.574219"/></g></g></g></g><g clip-path="url(#o)"><g clip-path="url(#p)"><g clip-path="url(#q)"><g clip-path="url(#r)"><path fill="url(#s)" d="M 77.785156 4.042969 L 76.917969 18.128906 L 91.015625 18.996094 L 91.882812 4.910156 Z M 77.785156 4.042969"/></g></g></g></g><g clip-path="url(#t)"><g clip-path="url(#u)"><g clip-path="url(#v)"><g clip-path="url(#w)"><path fill="url(#x)" d="M 7.5 36.046875 L 6.941406 45.144531 L 16.046875 45.707031 L 16.605469 36.605469 Z M 7.5 36.046875"/></g></g></g></g></g></g></g><g mask="url(#y)"><g><g clip-path="url(#z)" transform="translate(359 45)"><g clip-path="url(#A)"><g clip-path="url(#B)"><g clip-path="url(#C)"><g clip-path="url(#D)"><path fill="url(#E)" d="M 201.445312 63.617188 L 63.660156 -32.40625 L -34.417969 108.328125 L 103.371094 204.351562 Z M 201.445312 63.617188"/></g></g></g></g><g clip-path="url(#F)"><g clip-path="url(#G)"><g clip-path="url(#H)"><g clip-path="url(#I)"><path fill="url(#J)" d="M 46.902344 69.027344 L 31.605469 58.367188 L 20.949219 73.660156 L 36.246094 84.320312 Z M 46.902344 69.027344"/></g></g></g></g><g clip-path="url(#K)"><g clip-path="url(#L)"><g clip-path="url(#M)"><g clip-path="url(#N)"><path fill="url(#O)" d="M 127.960938 121.476562 L 112.796875 110.910156 L 102.234375 126.070312 L 117.394531 136.636719 Z M 127.960938 121.476562"/></g></g></g></g><g clip-path="url(#P)"><g clip-path="url(#Q)"><g clip-path="url(#R)"><g clip-path="url(#S)"><path fill="url(#T)" d="M 135.894531 45.328125 L 126.097656 38.503906 L 119.273438 48.292969 L 129.070312 55.121094 Z M 135.894531 45.328125"/></g></g></g></g></g></g></g><g clip-path="url(#U)"><g mask="url(#V)"><g><g clip-path="url(#W)" transform="translate(0 27)"><g clip-path="url(#X)"><path fill="#122620" d="M -7.1875 42.859375 L 760.417969 0.414062 L 762.359375 35.546875 L -5.246094 77.988281 L -7.1875 42.859375"/></g></g></g></g></g><g clip-path="url(#Y)"><g mask="url(#Z)"><g><g clip-path="url(#aa)" transform="translate(0 75)"><g clip-path="url(#ab)"><g clip-path="url(#ac)"><g clip-path="url(#ad)"><g clip-path="url(#ae)"><path fill="url(#af)" d="M 1.113281 0.394531 L -5.671875 110.753906 L 107.058594 117.6875 L 113.84375 7.328125 Z M 1.113281 0.394531"/></g></g></g></g><g clip-path="url(#ag)"><g clip-path="url(#ah)"><g clip-path="url(#ai)"><g clip-path="url(#aj)"><path fill="url(#ak)" d="M 47.640625 100.855469 L 46.765625 115.066406 L 60.988281 115.941406 L 61.863281 101.730469 Z M 47.640625 100.855469"/></g></g></g></g><g clip-path="url(#al)"><g clip-path="url(#am)"><g clip-path="url(#an)"><g clip-path="url(#ao)"><path fill="url(#ap)" d="M 50.21875 4.324219 L 49.351562 18.410156 L 63.449219 19.277344 L 64.316406 5.191406 Z M 50.21875 4.324219"/></g></g></g></g></g></g></g></g><g mask="url(#aq)"><g><g clip-path="url(#ar)" transform="translate(91 49)"><g clip-path="url(#as)"><g clip-path="url(#at)"><g clip-path="url(#au)"><g clip-path="url(#av)"><path fill="url(#aw)" d="M 200.878906 62.898438 L 63.09375 -33.125 L -34.984375 107.609375 L 102.804688 203.632812 Z M 200.878906 62.898438"/></g></g></g></g><g clip-path="url(#ax)"><g clip-path="url(#ay)"><g clip-path="url(#az)"><g clip-path="url(#aA)"><path fill="url(#aB)" d="M 46.335938 68.3125 L 31.042969 57.652344 L 20.382812 72.945312 L 35.679688 83.605469 Z M 46.335938 68.3125"/></g></g></g></g><g clip-path="url(#aC)"><g clip-path="url(#aD)"><g clip-path="url(#aE)"><g clip-path="url(#aF)"><path fill="url(#aG)" d="M 127.394531 120.761719 L 112.230469 110.195312 L 101.667969 125.351562 L 116.828125 135.917969 Z M 127.394531 120.761719"/></g></g></g></g><g clip-path="url(#aH)"><g clip-path="url(#aI)"><g clip-path="url(#aJ)"><g clip-path="url(#aK)"><path fill="url(#aL)" d="M 135.328125 44.609375 L 125.53125 37.785156 L 118.707031 47.578125 L 128.503906 54.402344 Z M 135.328125 44.609375"/></g></g></g></g></g></g></g><g mask="url(#aM)"><g><g clip-path="url(#aN)" transform="translate(511 52)"><g clip-path="url(#aO)"><g clip-path="url(#aP)"><g clip-path="url(#aQ)"><g clip-path="url(#aR)"><path fill="url(#aS)" d="M 3.226562 -0.816406 L -3.65625 111.121094 L 134.695312 119.628906 L 141.578125 7.695312 Z M 3.226562 -0.816406"/></g></g></g></g><g clip-path="url(#aT)"><g clip-path="url(#aU)"><g clip-path="url(#aV)"><g clip-path="url(#aW)"><path fill="url(#aX)" d="M 75.375 101.222656 L 74.5 115.433594 L 88.722656 116.308594 L 89.59375 102.097656 Z M 75.375 101.222656"/></g></g></g></g><g clip-path="url(#aY)"><g clip-path="url(#aZ)"><g clip-path="url(#ba)"><g clip-path="url(#bb)"><path fill="url(#bc)" d="M 77.953125 4.691406 L 77.085938 18.777344 L 91.183594 19.644531 L 92.050781 5.558594 Z M 77.953125 4.691406"/></g></g></g></g><g clip-path="url(#bd)"><g clip-path="url(#be)"><g clip-path="url(#bf)"><g clip-path="url(#bg)"><path fill="url(#bh)" d="M 7.667969 36.695312 L 7.109375 45.796875 L 16.214844 46.355469 L 16.773438 37.253906 Z M 7.667969 36.695312"/></g></g></g></g></g></g></g><g clip-path="url(#bi)"><g mask="url(#bj)"><g><g clip-path="url(#bk)" transform="translate(629 26)"><g clip-path="url(#bl)"><g clip-path="url(#bm)"><g clip-path="url(#bn)"><g clip-path="url(#bo)"><path fill="url(#bp)" d="M 180.867188 63.265625 L 57.042969 -23.023438 L -34.25 107.976562 L 89.574219 194.269531 Z M 180.867188 63.265625"/></g></g></g></g><g clip-path="url(#bq)"><g clip-path="url(#br)"><g clip-path="url(#bs)"><g clip-path="url(#bt)"><path fill="url(#bu)" d="M 47.070312 68.679688 L 31.773438 58.019531 L 21.117188 73.3125 L 36.414062 83.972656 Z M 47.070312 68.679688"/></g></g></g></g><g clip-path="url(#bv)"><g clip-path="url(#bw)"><g clip-path="url(#bx)"><g clip-path="url(#by)"><path fill="url(#bz)" d="M 126.507812 121.128906 L 112.4375 111.320312 L 102.402344 125.71875 L 116.472656 135.527344 Z M 126.507812 121.128906"/></g></g></g></g></g></g></g></g><g clip-path="url(#bA)"><path fill="#50A4FF" d="M -18.351562 0.304688 L 755.429688 -50.964844 L 762.355469 53.605469 L -11.421875 104.878906 L -18.351562 0.304688"/></g><g clip-path="url(#bB)"><g mask="url(#bC)"><g><g clip-path="url(#bD)" transform="translate(0 157)"><g clip-path="url(#bE)"><path fill="#122620" d="M -12.996094 20.445312 L 760.757812 0.417969 L 762.015625 49.058594 L -11.734375 69.085938 L -12.996094 20.445312"/></g></g></g></g></g><g clip-path="url(#bF)"><path fill="#FF5757" d="M -17.386719 194.417969 L 758.300781 164.339844 L 762.160156 263.824219 L -13.53125 293.902344 L -17.386719 194.417969"/></g></svg>